<svg width="230" height="230" viewBox="0 0 230 230" fill="none" xmlns="http://www.w3.org/2000/svg">
<rect width="230" height="230" rx="115" fill="#58DC00"/>
<path opacity="0.9" fill-rule="evenodd" clip-rule="evenodd" d="M153 223.574C141.104 227.737 128.317 230 115 230C102.056 230 89.6111 227.861 78 223.918V207.926C78 193.567 89.6406 181.926 104 181.926H127C141.359 181.926 153 193.567 153 207.926V223.574Z" fill="#1ABCFE"/>
<path d="M103 157.418H128V184.508C128 191.412 122.404 197.008 115.5 197.008V197.008C108.596 197.008 103 191.412 103 184.508V157.418Z" fill="#B77538"/>
<ellipse cx="165.5" cy="126.867" rx="12.5" ry="11.7828" fill="#B77538"/>
<ellipse cx="65.5" cy="126.867" rx="12.5" ry="11.7828" fill="#B77538"/>
<path d="M65 123.525C65 95.9104 87.3858 73.5247 115 73.5247V73.5247C142.614 73.5247 165 95.9104 165 123.525V161.213C165 170.05 157.837 177.213 149 177.213H81C72.1634 177.213 65 170.05 65 161.213V123.525Z" fill="#CB8C51"/>
<path d="M111.243 146.335C108.899 144.126 108.899 140.545 111.243 138.337L114.758 135.023C115.159 134.645 115.811 134.645 116.213 135.023L119.728 138.337C122.071 140.545 122.071 144.126 119.728 146.335V146.335C117.385 148.544 113.586 148.544 111.243 146.335V146.335Z" fill="#B77538"/>
<path d="M110 157.418C112.931 159.473 115.121 160.776 120 161.188" stroke="#82482D" stroke-width="4" stroke-linecap="round"/>
<path d="M174 107.93C174 112.876 169.747 116.885 164.5 116.885C159.253 116.885 155 112.876 155 107.93C155 102.985 159.253 98.9754 164.5 98.9754C169.747 98.9754 174 102.985 174 107.93Z" fill="#88401F"/>
<path d="M164.832 96.6187C164.832 101.564 160.579 105.574 155.332 105.574C150.086 105.574 145.832 101.564 145.832 96.6187C145.832 91.6731 150.086 87.6638 155.332 87.6638C160.579 87.6638 164.832 91.6731 164.832 96.6187Z" fill="#88401F"/>
<ellipse cx="66.5" cy="107.93" rx="9.5" ry="8.95492" fill="#88401F"/>
<ellipse cx="73.5" cy="98.504" rx="9.5" ry="8.95492" fill="#88401F"/>
<rect x="123" y="113.115" width="27" height="26.3934" rx="13.1967" fill="#FEFEFE"/>
<ellipse cx="133.5" cy="128.668" rx="4.5" ry="6.12705" fill="#4D4D4D"/>
<path d="M123 126.615C123 119.159 129.044 113.115 136.5 113.115V113.115C143.956 113.115 150 119.159 150 126.615V127.254H123V126.615Z" fill="#88401F"/>
<rect x="81" y="113.115" width="27" height="26.3934" rx="13.1967" fill="#FEFEFE"/>
<ellipse cx="91.5" cy="128.668" rx="4.5" ry="6.12705" fill="#4D4D4D"/>
<path d="M81 126.615C81 119.159 87.0442 113.115 94.5 113.115V113.115C101.956 113.115 108 119.159 108 126.615V127.254H81V126.615Z" fill="#88401F"/>
<path fill-rule="evenodd" clip-rule="evenodd" d="M83 148.893C83 159.618 93.8242 169.299 110.06 162.922L110.077 162.889C111.958 162.117 113.58 160.931 114.796 159.462C116.012 160.931 117.634 162.117 119.515 162.889L119.532 162.922C135.768 169.299 146.592 159.618 146.592 148.893C146.592 141.878 142.758 138.796 142.533 139.646C142.252 140.211 142.008 140.879 141.755 141.572C140.563 144.839 139.167 148.666 132.688 144.929C130.538 143.229 127.707 142.197 124.605 142.197C120.581 142.197 117.013 143.934 114.796 146.613C112.579 143.934 109.011 142.197 104.987 142.197C101.885 142.197 99.0539 143.229 96.9038 144.929C90.425 148.666 89.0286 144.839 87.8365 141.572L87.8365 141.572C87.5837 140.879 87.34 140.211 87.0591 139.646C86.8336 138.796 83 141.878 83 148.893Z" fill="#5B3B0D"/>
</svg>
