<svg width="230" height="230" viewBox="0 0 230 230" fill="none" xmlns="http://www.w3.org/2000/svg">
<path d="M0 115C0 51.4873 51.4873 0 115 0V0C178.513 0 230 51.4873 230 115V115C230 178.513 178.513 230 115 230V230C51.4873 230 0 178.513 0 115V115Z" fill="#1ABCFE"/>
<path fill-rule="evenodd" clip-rule="evenodd" d="M146.572 225.612C136.54 228.47 125.949 230 115 230C103.671 230 92.725 228.362 82.3853 225.31C82.1316 223.459 82 221.562 82 219.631C82 199.328 96.5507 182.869 114.5 182.869C132.449 182.869 147 199.328 147 219.631C147 221.668 146.854 223.666 146.572 225.612Z" fill="#FF363C"/>
<path d="M102 157.418H127V184.508C127 191.412 121.404 197.008 114.5 197.008V197.008C107.596 197.008 102 191.412 102 184.508V157.418Z" fill="#F5A26D"/>
<ellipse cx="164.5" cy="126.867" rx="12.5" ry="11.7828" fill="#F5A26D"/>
<ellipse cx="64.5" cy="126.867" rx="12.5" ry="11.7828" fill="#F5A26D"/>
<rect x="65" y="73.5247" width="100" height="104.631" rx="50" fill="#FFB89E"/>
<path d="M65 98.5246C65 84.7175 76.1929 73.5247 90 73.5247H140C153.807 73.5247 165 84.7175 165 98.5247V115.451C165 129.258 153.807 140.451 140 140.451H90C76.1929 140.451 65 129.258 65 115.451V98.5246Z" fill="#FFB89E"/>
<path d="M111.243 146.335C108.899 144.126 108.899 140.545 111.243 138.337L114.758 135.023C115.159 134.645 115.811 134.645 116.213 135.023L119.728 138.337C122.071 140.545 122.071 144.126 119.728 146.335V146.335C117.385 148.544 113.586 148.544 111.243 146.335V146.335Z" fill="#F5A26D"/>
<path d="M109 161.66H121" stroke="#F38360" stroke-width="5" stroke-linecap="round"/>
<path d="M115.827 43.3606C92.8155 43.3606 73.6106 58.6458 68.9441 79.0268H162.712C158.045 58.6458 138.84 43.3606 115.827 43.3606Z" fill="#FFE500"/>
<path d="M167.158 79.739C166.045 79.2869 164.819 79.0269 163.529 79.0269H68.1272C66.8371 79.0269 65.615 79.2869 64.4977 79.739C61.2633 81.0644 59 84.0993 59 87.6426V101.273C59 103.623 60 105.749 61.611 107.304C63.2714 108.893 65.5779 109.883 68.1272 109.883H163.529C167.135 109.883 170.244 107.905 171.73 105.043C172.318 103.906 172.656 102.629 172.656 101.273V87.6426C172.656 84.0993 170.397 81.0644 167.158 79.739Z" fill="#FF363C"/>
<rect x="122" y="114.057" width="27" height="26.3934" rx="13.1967" fill="#FEFEFE"/>
<ellipse cx="132.5" cy="129.611" rx="4.5" ry="6.12705" fill="#4D4D4D"/>
<path d="M122 127.557C122 120.102 128.044 114.057 135.5 114.057V114.057C142.956 114.057 149 120.102 149 127.557V128.197H122V127.557Z" fill="#59C015"/>
<rect x="80" y="114.057" width="27" height="26.3934" rx="13.1967" fill="#FEFEFE"/>
<ellipse cx="90.5" cy="129.611" rx="4.5" ry="6.12705" fill="#4D4D4D"/>
<path d="M80 127.557C80 120.102 86.0442 114.057 93.5 114.057V114.057C100.956 114.057 107 120.102 107 127.557V128.197H80V127.557Z" fill="#59C015"/>
<ellipse cx="60" cy="139.508" rx="6" ry="5.65574" fill="#7210B5"/>
<ellipse cx="170" cy="139.508" rx="6" ry="5.65574" fill="#7210B5"/>
</svg>
