<svg width="230" height="230" viewBox="0 0 230 230" fill="none" xmlns="http://www.w3.org/2000/svg">
<rect width="230" height="230" rx="115" fill="#7210B5"/>
<path fill-rule="evenodd" clip-rule="evenodd" d="M146.572 225.612C136.54 228.47 125.949 230 115 230C103.671 230 92.725 228.362 82.3853 225.31C82.1316 223.459 82 221.562 82 219.631C82 199.328 96.5507 182.869 114.5 182.869C132.449 182.869 147 199.328 147 219.631C147 221.668 146.854 223.666 146.572 225.612Z" fill="#FF363C"/>
<path d="M102 157.418H127V184.508C127 191.412 121.404 197.008 114.5 197.008V197.008C107.596 197.008 102 191.412 102 184.508V157.418Z" fill="#F5A26D"/>
<ellipse cx="164.5" cy="126.867" rx="12.5" ry="11.7828" fill="#F5A26D"/>
<ellipse cx="64.5" cy="126.867" rx="12.5" ry="11.7828" fill="#F5A26D"/>
<rect x="65" y="73.5247" width="100" height="104.631" rx="50" fill="#FFB89E"/>
<path d="M65 98.5246C65 84.7175 76.1929 73.5247 90 73.5247H140C153.807 73.5247 165 84.7175 165 98.5247V115.451C165 129.258 153.807 140.451 140 140.451H90C76.1929 140.451 65 129.258 65 115.451V98.5246Z" fill="#FFB89E"/>
<path d="M111.243 146.335C108.899 144.126 108.899 140.545 111.243 138.337L114.758 135.023C115.159 134.645 115.811 134.645 116.213 135.023L119.728 138.337C122.071 140.545 122.071 144.126 119.728 146.335V146.335C117.385 148.544 113.586 148.544 111.243 146.335V146.335Z" fill="#F5A26D"/>
<path d="M109 161.66H121" stroke="#F38360" stroke-width="5" stroke-linecap="round"/>
<path fill-rule="evenodd" clip-rule="evenodd" d="M59.9609 85.2499C69.5579 69.4224 90.5459 58.4426 114.893 58.4426C146.402 58.4426 172.286 76.8324 175.133 100.32C175.738 102.942 175.88 105.649 175.393 108.402C172.324 125.76 162.719 121.736 156.692 119.211C155.846 118.856 155.07 118.531 154.393 118.299C150.851 117.085 140.878 114.893 134.228 113.487C130.274 112.65 126.986 109.913 125.48 106.163L118.307 88.2931C117.941 87.3819 116.569 87.4704 116.304 88.4159C115.022 92.9964 112.211 101.69 107.893 107.93C100.393 118.77 60.2367 128.197 55.393 113.586C50.5492 98.9754 59.8929 85.3074 59.8929 85.3074L59.9609 85.2499Z" fill="#FFE500"/>
<path d="M122 126.615C122 119.159 128.044 113.115 135.5 113.115H145C147.209 113.115 149 114.906 149 117.115V126.008C149 133.464 142.956 139.508 135.5 139.508H126C123.791 139.508 122 137.717 122 135.508V126.615Z" fill="#FEFEFE"/>
<ellipse cx="133.5" cy="129.611" rx="5.5" ry="5.18443" fill="#59C015"/>
<path fill-rule="evenodd" clip-rule="evenodd" d="M135.5 113.115C128.044 113.115 122 119.159 122 126.615V127.254H148.943C148.981 126.844 149 126.428 149 126.008V117.115C149 114.906 147.209 113.115 145 113.115H135.5Z" fill="#7210B5"/>
<path d="M107 126.615C107 119.159 100.956 113.115 93.5 113.115H84C81.7909 113.115 80 114.906 80 117.115V126.008C80 133.464 86.0442 139.508 93.5 139.508H103C105.209 139.508 107 137.717 107 135.508V126.615Z" fill="#FEFEFE"/>
<ellipse cx="5.5" cy="5.18443" rx="5.5" ry="5.18443" transform="matrix(-1 0 0 1 101 124.426)" fill="#59C015"/>
<path fill-rule="evenodd" clip-rule="evenodd" d="M93.5 113.115C100.956 113.115 107 119.159 107 126.615V127.254H80.0567C80.0192 126.844 80 126.428 80 126.008V117.115C80 114.906 81.7909 113.115 84 113.115H93.5Z" fill="#7210B5"/>
<ellipse cx="59.4998" cy="141.865" rx="5.5" ry="5.18443" fill="#59C015"/>
<rect width="18.9849" height="18.9849" rx="3" transform="matrix(0.727674 -0.685923 0.727674 0.685923 46 164.785)" fill="#FF363C"/>
<ellipse cx="59.5" cy="150.348" rx="3.5" ry="3.29918" fill="#FFE500"/>
<ellipse cx="170.5" cy="141.865" rx="5.5" ry="5.18443" fill="#59C015"/>
<rect width="18.9849" height="18.9849" rx="3" transform="matrix(0.727674 -0.685923 0.727674 0.685923 157 164.785)" fill="#FF363C"/>
<ellipse cx="170.5" cy="150.348" rx="3.5" ry="3.29918" fill="#FFE500"/>
</svg>
