<svg width="230" height="230" viewBox="0 0 230 230" fill="none" xmlns="http://www.w3.org/2000/svg">
<rect width="230" height="230" rx="115" fill="#FF363C"/>
<path d="M65 98.5246C65 84.7175 76.1929 73.5247 90 73.5247H140C153.807 73.5247 165 84.7175 165 98.5247V115.451C165 129.258 153.807 140.451 140 140.451H90C76.1929 140.451 65 129.258 65 115.451V98.5246Z" fill="#FFD8BF"/>
<path fill-rule="evenodd" clip-rule="evenodd" d="M151.689 224.023C140.167 227.899 127.829 230 115 230C101.781 230 89.0834 227.77 77.2622 223.665C77.089 222.342 77 220.996 77 219.631C77 200.89 93.7893 185.697 114.5 185.697C135.211 185.697 152 200.89 152 219.631C152 221.12 151.894 222.586 151.689 224.023Z" fill="#FFE500"/>
<path d="M102 157.418H127V184.508C127 191.412 121.404 197.008 114.5 197.008V197.008C107.596 197.008 102 191.412 102 184.508V157.418Z" fill="#905940"/>
<ellipse cx="164.5" cy="126.867" rx="12.5" ry="11.7828" fill="#905940"/>
<ellipse cx="64.5" cy="126.867" rx="12.5" ry="11.7828" fill="#905940"/>
<path d="M80.0769 155.333C60.1522 136.551 60.1522 106.1 80.0769 87.3188V87.3188C99.2046 69.2886 130.217 69.2886 149.344 87.3188V87.3188C169.269 106.1 169.269 136.551 149.344 155.333L129.264 174.261C121.226 181.837 108.195 181.837 100.157 174.261L80.0769 155.333Z" fill="#A56649"/>
<path d="M111.243 146.335C108.899 144.126 108.899 140.545 111.243 138.337L114.758 135.023C115.159 134.645 115.811 134.645 116.213 135.023L119.728 138.337C122.071 140.545 122.071 144.126 119.728 146.335V146.335C117.385 148.544 113.586 148.544 111.243 146.335V146.335Z" fill="#905940"/>
<path d="M121.162 159.487C119.496 162.02 116.754 162.86 113.798 162.198C110.843 161.537 109.396 159.275 109 156.765" stroke="#88401F" stroke-width="5" stroke-linecap="round"/>
<path d="M47.1935 37.0852C53.0827 31.5135 61.8627 36.292 68.1494 37.0852C74.4362 37.8783 79.4657 29.9477 87.848 34.3095C96.2304 38.6712 88.9755 44.9478 100.422 50.9637C104.194 52.9463 109.743 53.938 111 65.0409C111.26 67.3409 110.948 69.3759 110.272 71.1679H125.5C125.779 75.1332 121.797 94.1854 106.708 95.3751C94.0807 96.3708 93.2966 93.3925 82.3995 95.3751C73.6818 96.9612 70.6176 104.454 69.5 109.344L69.0809 114.103V118.861C68 118.861 64.3774 119.563 62.2818 114.805C61.7378 113.57 61.5466 108.69 61.7283 103.695C53.9323 105.488 46.1366 101.65 44.6788 90.6167C43.2917 80.1177 33.2876 84.4155 30.4288 74.7555C27.4949 64.8422 40.4876 62.0664 43.0023 55.722C45.517 49.3775 39.6494 44.2226 47.1935 37.0852Z" fill="#FFFDDD"/>
<path d="M183.32 37.0852C177.431 31.5135 168.651 36.292 162.364 37.0852C156.077 37.8783 151.048 29.9477 142.665 34.3095C134.283 38.6712 141.538 44.9478 130.092 50.9637C126.32 52.9463 120.771 53.938 119.513 65.0409C119.253 67.3409 119.565 69.3759 120.241 71.1679H105.013C104.734 75.1332 108.717 94.1854 123.805 95.3751C136.433 96.3708 133.217 93.3925 144.114 95.3751C150.652 96.5647 156.882 103.04 158 107.93L160 113.586L161.5 120.184C163.636 119.713 166.136 119.563 168.232 114.805C168.776 113.57 168.967 108.69 168.785 103.695C176.581 105.488 184.377 101.65 185.835 90.6167C187.222 80.1177 197.226 84.4155 200.085 74.7555C203.018 64.8422 190.026 62.0664 187.511 55.722C184.996 49.3775 190.864 44.2226 183.32 37.0852Z" fill="#FFFDDD"/>
<ellipse cx="82.4745" cy="73.8304" rx="5.47454" ry="5.01883" fill="#7210B5"/>
<ellipse cx="66.4745" cy="88.9124" rx="5.47454" ry="5.01883" fill="#7210B5"/>
<ellipse cx="72.159" cy="79.2352" rx="7.15901" ry="6.56308" fill="#7210B5"/>
<ellipse cx="5.47454" cy="5.01883" rx="5.47454" ry="5.01883" transform="matrix(-1 0 0 1 152.949 68.8115)" fill="#7210B5"/>
<ellipse cx="5.47454" cy="5.01883" rx="5.47454" ry="5.01883" transform="matrix(-1 0 0 1 168.949 83.8936)" fill="#7210B5"/>
<ellipse cx="7.15901" cy="6.56308" rx="7.15901" ry="6.56308" transform="matrix(-1 0 0 1 164.949 72.6721)" fill="#7210B5"/>
<path fill-rule="evenodd" clip-rule="evenodd" d="M110.147 134.132C111.333 131.84 112 129.259 112 126.529C112 117.038 103.941 109.344 94 109.344C84.0589 109.344 76 117.038 76 126.529C76 129.259 76.6667 131.84 77.8532 134.132C81.661 132.015 87.4797 130.662 94.0002 130.662C100.521 130.662 106.339 132.015 110.147 134.132Z" fill="#FDFFFF"/>
<path fill-rule="evenodd" clip-rule="evenodd" d="M104.131 131.848C105.598 129.921 106.462 127.559 106.462 125.006C106.462 118.519 100.882 113.26 94.0001 113.26C87.1178 113.26 81.5386 118.519 81.5386 125.006C81.5386 127.559 82.4024 129.921 83.8695 131.848C86.8663 131.093 90.3215 130.662 94.0002 130.662C97.6788 130.662 101.134 131.093 104.131 131.848Z" fill="#351802"/>
<ellipse cx="91" cy="119.713" rx="4" ry="3.77049" fill="#FDFFFF"/>
<path fill-rule="evenodd" clip-rule="evenodd" d="M118.853 134.132C117.667 131.84 117 129.259 117 126.529C117 117.038 125.059 109.344 135 109.344C144.941 109.344 153 117.038 153 126.529C153 129.259 152.333 131.84 151.147 134.132C147.339 132.015 141.52 130.662 135 130.662C128.479 130.662 122.661 132.015 118.853 134.132Z" fill="#FDFFFF"/>
<path fill-rule="evenodd" clip-rule="evenodd" d="M124.869 131.848C123.402 129.921 122.538 127.559 122.538 125.006C122.538 118.519 128.118 113.26 135 113.26C141.882 113.26 147.461 118.519 147.461 125.006C147.461 127.559 146.598 129.921 145.131 131.848C142.134 131.093 138.678 130.662 135 130.662C131.321 130.662 127.866 131.093 124.869 131.848Z" fill="#351802"/>
<ellipse cx="4" cy="3.77049" rx="4" ry="3.77049" transform="matrix(-1 0 0 1 142 115.943)" fill="#FDFFFF"/>
</svg>
