<svg width="200" height="200" viewBox="0 0 200 200" fill="none" xmlns="http://www.w3.org/2000/svg">
<rect width="200" height="200" rx="30" fill="#FFE500"/>
<path d="M66.3158 183.895C66.3158 169.535 77.9564 157.895 92.3158 157.895H111.895C126.254 157.895 137.895 169.535 137.895 183.895V200H66.3158V183.895Z" fill="#59C015"/>
<ellipse cx="12.1053" cy="11.5789" rx="12.1053" ry="11.5789" transform="matrix(-1 0 0 1 61.0526 102.105)" fill="#6E3820"/>
<circle cx="12.1053" cy="12.1053" r="12.1053" transform="matrix(-1 0 0 1 70.5263 116.842)" fill="#6E3820"/>
<circle cx="8" cy="8" r="8" transform="matrix(-1 0 0 1 71 162)" fill="#6E3820"/>
<circle cx="8" cy="8" r="8" transform="matrix(-1 0 0 1 149 162)" fill="#6E3820"/>
<circle cx="4" cy="4" r="4" transform="matrix(-1 0 0 1 145 174)" fill="#6E3820"/>
<circle cx="4" cy="4" r="4" transform="matrix(-1 0 0 1 69 174)" fill="#6E3820"/>
<circle cx="12.1053" cy="12.1053" r="12.1053" transform="matrix(-1 0 0 1 94.2105 138)" fill="#6E3820"/>
<circle cx="12.1053" cy="12.1053" r="12.1053" transform="matrix(-1 0 0 1 133.211 138)" fill="#6E3820"/>
<circle cx="7.89474" cy="7.89474" r="7.89474" transform="matrix(-1 0 0 1 76.8421 132.632)" fill="#6E3820"/>
<circle cx="7.89474" cy="7.89474" r="7.89474" transform="matrix(-1 0 0 1 66.7895 136)" fill="#6E3820"/>
<circle cx="7.89474" cy="7.89474" r="7.89474" transform="matrix(-1 0 0 1 152.789 136)" fill="#6E3820"/>
<circle cx="7.89474" cy="7.89474" r="7.89474" transform="matrix(-1 0 0 1 153.789 149)" fill="#6E3820"/>
<circle cx="7.89474" cy="7.89474" r="7.89474" transform="matrix(-1 0 0 1 65.7895 149)" fill="#6E3820"/>
<circle cx="11.5" cy="11.5" r="11.5" transform="matrix(-1 0 0 1 80 146)" fill="#6E3820"/>
<circle cx="11.5" cy="11.5" r="11.5" transform="matrix(-1 0 0 1 146 147)" fill="#6E3820"/>
<circle cx="7.89474" cy="7.89474" r="7.89474" transform="matrix(-1 0 0 1 142.105 132.632)" fill="#6E3820"/>
<circle cx="12.1053" cy="12.1053" r="12.1053" transform="matrix(-1 0 0 1 157.895 116.842)" fill="#6E3820"/>
<ellipse cx="12.1053" cy="11.5789" rx="12.1053" ry="11.5789" transform="matrix(-1 0 0 1 165.263 102.105)" fill="#6E3820"/>
<path d="M90.5263 133.684H113.684V158.947C113.684 165.342 108.5 170.526 102.105 170.526C95.7104 170.526 90.5263 165.342 90.5263 158.947V133.684Z" fill="#BF6A34"/>
<ellipse cx="148.718" cy="104.754" rx="11.7434" ry="11.0696" fill="#BF6A34"/>
<ellipse cx="54.7708" cy="104.754" rx="11.7434" ry="11.0696" fill="#BF6A34"/>
<rect x="55.7895" y="54.7368" width="93.6842" height="98.9474" rx="46.8421" fill="#E68B50"/>
<path d="M98.6844 123.045C96.483 120.97 96.483 117.605 98.6843 115.53L101.943 112.459C102.344 112.08 102.996 112.08 103.398 112.459L106.656 115.53C108.857 117.605 108.857 120.97 106.656 123.045C104.455 125.12 100.886 125.12 98.6844 123.045Z" fill="#BF6A34"/>
<path d="M96.8421 136.895L99.7723 137.985C101.534 138.641 103.471 138.655 105.242 138.025L108.421 136.895" stroke="#BF6A34" stroke-width="5" stroke-linecap="round"/>
<rect x="108.79" y="92.7203" width="25.3658" height="24.7959" rx="12.398" fill="#FEFEFE"/>
<rect x="69.3326" y="92.7203" width="25.3658" height="24.7959" rx="12.398" fill="#FEFEFE"/>
<ellipse cx="82.5" cy="107.5" rx="4.5" ry="5.5" fill="#351802"/>
<ellipse cx="122.167" cy="107.5" rx="4.5" ry="5.5" fill="#351802"/>
<circle cx="78.421" cy="60.5263" r="16.3158" fill="#6E3820"/>
<circle cx="101.579" cy="54.2105" r="14.2105" fill="#6E3820"/>
<ellipse cx="55.7895" cy="77.3684" rx="18.9474" ry="19.4737" fill="#6E3820"/>
<circle cx="16.3158" cy="16.3158" r="16.3158" transform="matrix(-1 0 0 1 141.053 44.2105)" fill="#6E3820"/>
<circle cx="19.4737" cy="19.4737" r="19.4737" transform="matrix(-1 0 0 1 166.316 57.8947)" fill="#6E3820"/>
<ellipse cx="12.1053" cy="12.6316" rx="12.1053" ry="12.6316" transform="matrix(-1 0 0 1 166.316 86.3158)" fill="#6E3820"/>
<ellipse cx="11.5789" cy="12.6316" rx="11.5789" ry="12.6316" transform="matrix(-1 0 0 1 56.8421 86.3158)" fill="#6E3820"/>
<circle cx="6.84211" cy="6.84211" r="6.84211" transform="matrix(-1 0 0 1 66.3158 50.5263)" fill="#FF363C"/>
<ellipse cx="7.36842" cy="6.84211" rx="7.36842" ry="6.84211" transform="matrix(-1 0 0 1 150.526 50.5263)" fill="#FF363C"/>
<circle cx="3.5" cy="3.5" r="3.5" transform="matrix(-1 0 0 1 143 61)" fill="#FFD8BF"/>
<circle cx="3.5" cy="3.5" r="3.5" transform="matrix(-1 0 0 1 67 61)" fill="#FFD8BF"/>
<circle cx="4.73684" cy="4.73684" r="4.73684" transform="matrix(-1 0 0 1 91.5789 41.0526)" fill="#6E3820"/>
<circle cx="4.73684" cy="4.73684" r="4.73684" transform="matrix(-1 0 0 1 121.053 41.0526)" fill="#6E3820"/>
<circle cx="83.5" cy="105.5" r="1.5" fill="#FEFEFE"/>
<circle cx="123.167" cy="105.5" r="1.5" fill="#FEFEFE"/>
<circle cx="102.5" cy="178.5" r="3.5" fill="#FFD8BF"/>
<circle cx="102.5" cy="191.5" r="3.5" fill="#FFD8BF"/>
</svg>
