<svg width="200" height="200" viewBox="0 0 200 200" fill="none" xmlns="http://www.w3.org/2000/svg">
<rect width="200" height="200" rx="30" fill="#7210B5"/>
<path d="M109.148 24.7014C116.216 27.6927 118.046 32.7426 117.846 37.1351C117.709 40.1567 118.884 41.1592 121.434 39.5319C126.375 36.3787 134.327 33.9416 143.92 43.5371C150.399 50.0176 150.875 62.3728 150.875 71.7906C150.875 81.2085 155.047 76.4996 163.393 85.9174C171.738 95.3353 165.712 100.413 160.148 103.944C154.585 107.476 152.5 114.5 157.829 120.057C164.296 126.801 169.288 126.681 164.784 140.07C164.19 141.835 164.887 144.21 165.747 146.417C166.72 148.915 164.962 151.17 162.285 151.011C158.904 150.809 154.982 150.665 152.265 150.665C146.702 150.665 146 160.286 137.5 161.5C123.5 163.5 118.884 154.197 116.102 157.729C113.922 160.497 99.9907 158.217 92.8873 156.647C92.598 156.583 92.3115 156.55 92.0153 156.556C85.3632 156.706 72.1316 160.083 66.0298 160.083C57 160.083 58.0518 154.544 50 152.5C44 150.977 43.5 154.5 36.6482 151.842C31.5492 149.865 26.1482 142.705 28.6482 133.944C31.8788 122.624 36.43 122.957 39.2119 118.248C41.9937 113.54 31.5846 114.813 33.6482 102.944C34.6843 96.9856 41.9936 97.0583 39.2119 91.1721C36.4301 85.286 34.0392 75.3223 36.821 64.7273C39.6028 54.1322 44.5 51.5 53.5118 49.4233C61.7245 47.5306 74.1483 34.4445 77.157 31.7648C79.1992 29.9461 95.2387 18.8153 109.148 24.7014Z" fill="#FFE500"/>
<path d="M64 180.737C64 166.377 75.6406 154.737 90 154.737H109.579C123.938 154.737 135.579 166.377 135.579 180.737V200H64V180.737Z" fill="#FF363C"/>
<ellipse cx="145.743" cy="106.07" rx="11.7434" ry="11.0696" fill="#F7A88B"/>
<ellipse cx="53.7434" cy="106.07" rx="11.7434" ry="11.0696" fill="#F7A88B"/>
<path d="M88 131.932H111.487V157.383C111.487 163.868 106.229 169.126 99.7434 169.126C93.2577 169.126 88 163.868 88 157.383V131.932Z" fill="#ED8A4B"/>
<rect x="53" y="53.1164" width="93.9474" height="98.2982" rx="46.9737" fill="#FFB89E"/>
<path d="M96.2937 121.52C94.0924 119.445 94.0924 116.081 96.2937 114.006L99.5519 110.935C99.9538 110.556 100.605 110.556 101.007 110.935L104.265 114.006C106.467 116.081 106.467 119.445 104.265 121.52C102.064 123.595 98.495 123.595 96.2937 121.52Z" fill="#ED8A4B"/>
<path d="M103.918 133.33C102.353 135.71 99.7765 136.499 97 135.877" stroke="#F38360" stroke-width="5" stroke-linecap="round"/>
<path fill-rule="evenodd" clip-rule="evenodd" d="M92.5 76C84 86 57.7665 98.562 54.0646 84.8357C50.3627 71.1094 57.5038 58.2686 57.5038 58.2686L72.4069 42.7711L101.231 41L126.287 44.9851C126.287 44.9851 127.333 45.845 128.996 47.3334C129.358 47.2448 129.73 47.1989 130.109 47.1989C133.327 47.1989 136.057 50.5202 137.009 55.1193C137.451 55.5867 137.895 56.0648 138.341 56.5522C139.925 57.3172 141.28 58.9182 142.201 61.0313C147.494 67.5852 151.861 75.015 151 81C148.981 95.035 135.953 91.5271 129.726 89.2635C126.526 88.1002 121.273 84.1008 116.922 80.4879C111.891 76.3101 107.816 71.1366 104.5 65.5L102.673 61.4595C102.259 60.5429 100.713 60.7065 100.421 61.669C99.3946 65.0514 97.1622 70.515 92.5 76Z" fill="#FFE500"/>
<path d="M106.4 103.533C106.4 96.2302 112.32 90.3102 119.623 90.3102H119.895C126.451 90.3102 131.766 95.6248 131.766 102.181V102.181C131.766 109.319 125.979 115.106 118.84 115.106H110.4C108.191 115.106 106.4 113.315 106.4 111.106V103.533Z" fill="#FEFEFE"/>
<ellipse cx="117.204" cy="105.808" rx="5.1671" ry="4.87063" fill="#7210B5"/>
<path fill-rule="evenodd" clip-rule="evenodd" d="M117.4 90.3103C111.325 90.3103 106.4 95.2352 106.4 101.31V103.594H131.689C131.74 103.13 131.766 102.658 131.766 102.181C131.766 95.6249 126.451 90.3103 119.895 90.3103H117.4Z" fill="#1ABCFE"/>
<path d="M92 103.533C92 96.2302 86.08 90.3102 78.7774 90.3102H78.5046C71.9488 90.3102 66.6342 95.6248 66.6342 102.181V102.181C66.6342 109.319 72.4212 115.106 79.5598 115.106H88C90.2091 115.106 92 113.315 92 111.106V103.533Z" fill="#FEFEFE"/>
<ellipse cx="5.1671" cy="4.87063" rx="5.1671" ry="4.87063" transform="matrix(-1 0 0 1 86.671 100.937)" fill="#7210B5"/>
<path fill-rule="evenodd" clip-rule="evenodd" d="M81 90.3103C87.0751 90.3103 92 95.2352 92 101.31V103.594H66.7795C66.6838 102.945 66.6342 102.282 66.6342 101.606V100.31C66.6342 94.7875 71.1114 90.3103 76.6342 90.3103H81Z" fill="#1ABCFE"/>
<ellipse cx="50" cy="128.5" rx="3" ry="11.5" fill="#FF363C"/>
<circle cx="50" cy="115" r="3" fill="#7210B5"/>
<ellipse cx="150" cy="128.5" rx="3" ry="11.5" fill="#FF363C"/>
<circle cx="150" cy="115" r="3" fill="#7210B5"/>
</svg>
