<svg width="201" height="200" viewBox="0 0 201 200" fill="none" xmlns="http://www.w3.org/2000/svg">
<rect width="201" height="200" rx="30" fill="#FFE500"/>
<path d="M63.1578 171.617C63.1578 163.457 69.7727 156.842 77.9325 156.842H123.12C131.28 156.842 137.895 163.457 137.895 171.617V200H63.1578V171.617Z" fill="#311203"/>
<path d="M87.002 134.391H113.318V158.815C113.318 165.092 108.229 170.18 101.953 170.18H98.367C92.0903 170.18 87.002 165.092 87.002 158.815V134.391Z" fill="#B77538"/>
<ellipse cx="149.207" cy="105.906" rx="12.2511" ry="10.8873" fill="#B77538"/>
<ellipse cx="51.1985" cy="105.906" rx="12.2511" ry="10.8873" fill="#B77538"/>
<path d="M51.2125 83.8559C51.2125 68.1639 63.9333 55.4431 79.6253 55.4431H120.695C136.386 55.4431 149.107 68.1639 149.107 83.8558V143.193C149.107 148.215 145.037 152.285 140.015 152.285H60.3046C55.2832 152.285 51.2125 148.215 51.2125 143.193V83.8559Z" fill="#CB8C51"/>
<path d="M94.4183 122.465C93.0108 121.214 93.0108 119.186 94.4183 117.935L99.7613 113.187C99.9959 112.978 100.376 112.978 100.611 113.187L105.954 117.935C107.361 119.186 107.361 121.214 105.954 122.465L102.735 125.326C101.327 126.576 99.045 126.576 97.6375 125.326L94.4183 122.465Z" fill="#B77538"/>
<path d="M94.3704 134.391C97.4552 136.685 99.7604 138.141 104.897 138.601" stroke="#82482D" stroke-width="2.27302" stroke-linecap="round"/>
<ellipse cx="148.22" cy="88.4093" rx="9.31082" ry="8.27436" fill="#88401F"/>
<ellipse cx="52.1729" cy="88.4094" rx="9.31082" ry="8.27436" fill="#88401F"/>
<path d="M99.5382 25.2632C76.9851 25.2632 58.1625 39.3868 53.589 58.2188H145.489C140.916 39.3868 122.093 25.2632 99.5382 25.2632Z" fill="#EC0055"/>
<path d="M149.846 58.8767C148.755 58.459 147.553 58.2187 146.289 58.2187H52.7874C51.523 58.2187 50.3251 58.459 49.2302 58.8767C46.0601 60.1014 43.8419 62.9056 43.8419 66.1797V78.7738C43.8419 80.9452 44.822 82.9103 46.4009 84.3465C48.0283 85.815 50.2888 86.7294 52.7874 86.7294H146.289C149.824 86.7294 152.871 84.9023 154.327 82.2576C154.904 81.2069 155.234 80.0271 155.234 78.7738V66.1797C155.234 62.9056 153.02 60.1014 149.846 58.8767Z" fill="#1652A4"/>
<path d="M52.8766 80.6151C52.8766 81.9867 51.6203 83.102 50.0776 83.102C48.5349 83.102 47.2847 81.9867 47.2847 80.6151V64.3381C47.2847 62.9664 48.5349 61.8494 50.0776 61.8494C51.6203 61.8494 52.8766 62.9664 52.8766 64.3381V80.6151Z" fill="#3D73BD"/>
<path d="M62.7143 80.6151C62.7143 81.9867 61.46 83.102 59.9154 83.102C58.3727 83.102 57.1224 81.9867 57.1224 80.6151V64.3381C57.1224 62.9664 58.3727 61.8494 59.9154 61.8494C61.46 61.8494 62.7143 62.9664 62.7143 64.3381V80.6151Z" fill="#3D73BD"/>
<path d="M72.551 80.6152C72.551 81.9868 71.2967 83.1021 69.7541 83.1021C68.2094 83.1021 66.9551 81.9868 66.9551 80.6152V64.3382C66.9551 62.9665 68.2094 61.8495 69.7541 61.8495C71.2967 61.8495 72.551 62.9665 72.551 64.3382V80.6152Z" fill="#3D73BD"/>
<path d="M82.3881 80.6152C82.3881 81.9868 81.1399 83.1021 79.5952 83.1021C78.0525 83.1021 76.7982 81.9868 76.7982 80.6152V64.3382C76.7982 62.9665 78.0525 61.8495 79.5952 61.8495C81.1399 61.8495 82.3881 62.9665 82.3881 64.3382V80.6152Z" fill="#3D73BD"/>
<path d="M92.2258 80.6151C92.2258 81.9867 90.9775 83.102 89.4328 83.102C87.8841 83.102 86.6359 81.9867 86.6359 80.6151V64.3381C86.6359 62.9664 87.8841 61.8494 89.4328 61.8494C90.9775 61.8494 92.2258 62.9664 92.2258 64.3381V80.6151Z" fill="#3D73BD"/>
<path d="M102.067 80.6151C102.067 81.9867 100.817 83.102 99.2681 83.102C97.7255 83.102 96.4752 81.9867 96.4752 80.6151V64.3381C96.4752 62.9664 97.7255 61.8494 99.2681 61.8494C100.817 61.8494 102.067 62.9664 102.067 64.3381V80.6151Z" fill="#3D73BD"/>
<path d="M111.903 80.6152C111.903 81.9868 110.649 83.1021 109.106 83.1021C107.561 83.1021 106.313 81.9868 106.313 80.6152V64.3382C106.313 62.9665 107.561 61.8495 109.106 61.8495C110.649 61.8495 111.903 62.9665 111.903 64.3382V80.6152Z" fill="#3D73BD"/>
<path d="M121.746 80.6151C121.746 81.9867 120.489 83.102 118.947 83.102C117.404 83.102 116.154 81.9867 116.154 80.6151V64.3381C116.154 62.9664 117.404 61.8494 118.947 61.8494C120.489 61.8494 121.746 62.9664 121.746 64.3381V80.6151Z" fill="#3D73BD"/>
<path d="M131.584 80.6152C131.584 81.9868 130.329 83.1021 128.785 83.1021C127.242 83.1021 125.988 81.9868 125.988 80.6152V64.3382C125.988 62.9665 127.242 61.8495 128.785 61.8495C130.329 61.8495 131.584 62.9665 131.584 64.3382V80.6152Z" fill="#3D73BD"/>
<path d="M141.423 80.6152C141.423 81.9868 140.172 83.1021 138.63 83.1021C137.085 83.1021 135.831 81.9868 135.831 80.6152V64.3382C135.831 62.9665 137.085 61.8495 138.63 61.8495C140.172 61.8495 141.423 62.9665 141.423 64.3382V80.6152Z" fill="#3D73BD"/>
<path d="M151.26 80.6151C151.26 81.9867 150.012 83.102 148.467 83.102C146.919 83.102 145.67 81.9867 145.67 80.6151V64.3381C145.67 62.9664 146.919 61.8494 148.467 61.8494C150.012 61.8494 151.26 62.9664 151.26 64.3381V80.6151Z" fill="#3D73BD"/>
<rect x="107.551" y="93.1995" width="26.4623" height="24.3876" rx="12.1938" fill="#FEFEFE"/>
<ellipse cx="117.843" cy="107.571" rx="4.41039" ry="5.66141" fill="#4D4D4D"/>
<path d="M107.551 102.292C107.551 97.2702 111.622 93.1995 116.643 93.1995H124.921C129.943 93.1995 134.013 97.2702 134.013 102.292V106.264H107.551V102.292Z" fill="#88401F"/>
<rect x="66.3875" y="93.1995" width="26.4623" height="24.3876" rx="12.1938" fill="#FEFEFE"/>
<ellipse cx="76.6789" cy="107.571" rx="4.41039" ry="5.66141" fill="#4D4D4D"/>
<path d="M66.3875 102.292C66.3875 97.2702 70.4581 93.1995 75.4795 93.1995H83.7577C88.7791 93.1995 92.8498 97.2702 92.8498 102.292V106.264H66.3875V102.292Z" fill="#88401F"/>
<path fill-rule="evenodd" clip-rule="evenodd" d="M130.672 126.258C130.672 136.169 120.064 145.114 104.151 139.221L104.135 139.191C102.291 138.478 100.7 137.382 99.5085 136.024C98.3169 137.381 96.7269 138.477 94.8833 139.191L94.8672 139.221C78.9543 145.114 68.3457 136.169 68.3457 126.258C68.3457 119.777 72.1029 116.929 72.3239 117.715C72.5993 118.237 72.8381 118.854 73.0859 119.494C74.2541 122.512 75.6225 126.048 81.9697 122.598C84.0772 121.026 86.8526 120.072 89.8935 120.072C93.838 120.072 97.3355 121.678 99.5084 124.153C101.681 121.678 105.179 120.072 109.123 120.072C112.163 120.072 114.937 121.025 117.044 122.595C123.395 126.049 124.764 122.513 125.932 119.494C126.18 118.854 126.419 118.237 126.694 117.714C126.915 116.929 130.672 119.777 130.672 126.258Z" fill="#5B3B0D"/>
</svg>
