<svg width="200" height="200" viewBox="0 0 200 200" fill="none" xmlns="http://www.w3.org/2000/svg">
<rect width="200" height="200" rx="30" fill="#FF5C00"/>
<path d="M65 181.058C65 166.698 76.6406 155.058 91 155.058H108.474C122.833 155.058 134.474 166.698 134.474 181.058V200H65V181.058Z" fill="#FFFDDD"/>
<path d="M88 132.064H111.158V157.066C111.158 163.461 105.974 168.645 99.5789 168.645C93.1841 168.645 88 163.461 88 157.066V132.064Z" fill="#6E3820"/>
<ellipse cx="146.691" cy="103.038" rx="11.7434" ry="10.9911" fill="#6E3820"/>
<ellipse cx="52.7434" cy="103.038" rx="11.7434" ry="10.9911" fill="#6E3820"/>
<path d="M52 100C52 73.8392 73.2076 52.6316 99.3684 52.6316V52.6316C125.529 52.6316 146.737 73.8392 146.737 100V119.832C146.737 136.401 133.305 149.832 116.737 149.832H82C65.4315 149.832 52 136.401 52 119.832V100Z" fill="#864B31"/>
<path d="M95.7702 121.199C93.5688 119.139 93.5688 115.798 95.7702 113.738L99.0259 110.691C99.4291 110.313 100.083 110.313 100.486 110.691L103.742 113.738C105.943 115.798 105.943 119.139 103.742 121.199C101.541 123.259 97.9715 123.259 95.7702 121.199Z" fill="#6E3820"/>
<path d="M94.7397 132.064C97.516 133.773 99.5907 134.857 104.213 135.2" stroke="#6E3820" stroke-width="5" stroke-linecap="round"/>
<rect x="106.872" y="89.921" width="26.4942" height="25.1106" rx="12.5553" fill="#FEFEFE"/>
<ellipse cx="116.68" cy="104.719" rx="4.22763" ry="5.71538" fill="#1ABCFE"/>
<path d="M106.872 101.972C106.872 94.6562 112.803 88.7252 120.119 88.7252C127.435 88.7252 133.366 94.6562 133.366 101.972V103.074H106.872V101.972Z" fill="#6E3820"/>
<rect x="67.1303" y="89.921" width="26.4942" height="25.1106" rx="12.5553" fill="#FEFEFE"/>
<ellipse cx="77.2223" cy="104.719" rx="4.22763" ry="5.71538" fill="#1ABCFE"/>
<path d="M67.1304 101.972C67.1304 94.6562 73.0613 88.7252 80.3775 88.7252C87.6936 88.7252 93.6246 94.6562 93.6246 101.972V103.074H67.1304V101.972Z" fill="#6E3820"/>
<path d="M147 80C147 80 125.957 80 100 80C74.0426 80 53 80 53 80C53 55.1472 74.0426 35 100 35C125.957 35 147 55.1472 147 80Z" fill="#59C015"/>
<rect x="53" y="76" width="116" height="9" rx="4.5" fill="#59C015"/>
<rect x="147" y="74" width="2" height="94" rx="0.4" transform="rotate(90 147 74)" fill="#FFFDDD"/>
<circle cx="100" cy="37" r="6" fill="#59C015"/>
</svg>
