<svg width="200" height="200" viewBox="0 0 200 200" fill="none" xmlns="http://www.w3.org/2000/svg">
<rect width="200" height="200" rx="30" fill="#58DC00"/>
<path fill-rule="evenodd" clip-rule="evenodd" d="M100.245 150.553C74.6285 150.553 53.8625 171.319 53.8625 196.935V200H146.627V196.935C146.627 171.319 125.861 150.553 100.245 150.553Z" fill="#7210B5"/>
<path d="M89.4737 131.579H112.632V156.842C112.632 163.237 107.448 168.421 101.053 168.421V168.421C94.6578 168.421 89.4737 163.237 89.4737 156.842V131.579Z" fill="#D18643"/>
<ellipse cx="147.927" cy="102.346" rx="11.7434" ry="11.0696" fill="#D18643"/>
<ellipse cx="53.9794" cy="102.346" rx="11.7434" ry="11.0696" fill="#D18643"/>
<path d="M55.7398 94.5385C54.6208 71.1522 73.2799 51.579 96.6929 51.579H105.174C128.279 51.579 146.821 70.6605 146.158 93.7556L145.701 109.65C145.065 131.827 126.904 149.474 104.718 149.474H97.4535C75.5717 149.474 57.5462 132.29 56.5004 110.433L55.7398 94.5385Z" fill="#E3A063"/>
<path d="M96.9537 120.636C94.7524 118.561 94.7524 115.197 96.9537 113.122L100.212 110.051C100.614 109.672 101.265 109.672 101.667 110.051L104.925 113.122C107.127 115.197 107.127 118.561 104.925 120.636V120.636C102.724 122.711 99.1551 122.711 96.9537 120.636V120.636Z" fill="#D18643"/>
<path d="M108.421 129.474C107.158 132.281 104.047 133.684 100.211 133.684C96.3736 133.684 93.8947 131.813 92.6316 129.474" stroke="#D1753A" stroke-width="5" stroke-linecap="round"/>
<path d="M145.035 33.7836C139.549 26.3448 130.148 21.4341 119.46 21.4341C114.982 21.4341 110.736 22.301 106.899 23.8487C101.353 18.8706 93.6926 15.7895 85.2262 15.7895C72.3258 15.7895 61.2955 22.941 56.7747 33.062C40.4249 33.6471 27.3684 45.7111 27.3684 60.5194C27.3684 69.6831 32.3736 77.7937 40.0612 82.7859C38.5727 85.3158 37.7286 88.1966 37.7286 91.2547C37.7286 100.262 55.1864 111.41 57.0724 109.187C58.9583 106.963 57.5438 101.181 58.4868 97.1785C59.4298 93.1758 66.0307 88.7283 66.0307 88.7283C66.0307 88.7283 70.9144 86.0639 75.9591 82.7859C80.6203 79.7598 84.2892 75.5883 86.4597 70.7308C90.4843 70.5872 94.3034 69.7469 97.7865 68.3428C99.5675 67.6231 101.258 66.7562 102.841 65.7563C103.697 68.7293 105.099 71.5038 106.935 73.9981C110.311 78.5755 115.168 82.1921 120.897 84.2982C124.481 85.6171 128.403 86.3475 132.51 86.3475C137.638 86.3475 141.941 92.731 143.355 94.9548C143.355 94.9548 143.827 103.85 146.656 104.739C149.485 105.629 161.159 95.653 161.159 87.4272C161.159 83.0483 159.434 79.0311 156.559 75.8915C160.687 71.2095 163.158 65.2971 163.158 58.8636C163.158 47.6895 155.713 38.0773 145.035 33.7836Z" fill="#FFFDDD"/>
<path fill-rule="evenodd" clip-rule="evenodd" d="M96.8637 109.172C97.9784 107.018 98.6047 104.593 98.6047 102.029C98.6047 93.1121 91.0336 85.8839 81.6942 85.8839C72.3548 85.8839 64.7837 93.1121 64.7837 102.029C64.7837 104.593 65.4101 107.018 66.5248 109.172C70.102 107.183 75.5685 105.912 81.6944 105.912C87.8201 105.912 93.2865 107.183 96.8637 109.172Z" fill="#FDFFFF"/>
<path fill-rule="evenodd" clip-rule="evenodd" d="M91.2118 107.026C92.5901 105.216 93.4016 102.996 93.4016 100.598C93.4016 94.5032 88.16 89.5624 81.6943 89.5624C75.2285 89.5624 69.987 94.5032 69.987 100.598C69.987 102.996 70.7985 105.216 72.1768 107.026C74.9922 106.316 78.2384 105.911 81.6944 105.911C85.1503 105.911 88.3964 106.316 91.2118 107.026Z" fill="#351802"/>
<ellipse cx="78.8758" cy="95.6252" rx="3.75789" ry="3.54228" fill="#FDFFFF"/>
<path fill-rule="evenodd" clip-rule="evenodd" d="M105.043 109.171C103.928 107.018 103.302 104.593 103.302 102.028C103.302 93.112 110.873 85.8839 120.213 85.8839C129.552 85.8839 137.123 93.112 137.123 102.028C137.123 104.593 136.497 107.018 135.382 109.172C131.805 107.183 126.338 105.911 120.212 105.911C114.087 105.911 108.62 107.183 105.043 109.171Z" fill="#FDFFFF"/>
<path fill-rule="evenodd" clip-rule="evenodd" d="M110.695 107.026C109.317 105.215 108.505 102.996 108.505 100.598C108.505 94.5031 113.747 89.5623 120.213 89.5623C126.678 89.5623 131.92 94.5031 131.92 100.598C131.92 102.996 131.108 105.216 129.73 107.026C126.915 106.316 123.668 105.911 120.212 105.911C116.756 105.911 113.51 106.316 110.695 107.026Z" fill="#351802"/>
<ellipse cx="3.75789" cy="3.54228" rx="3.75789" ry="3.54228" transform="matrix(-1 0 0 1 126.789 92.0829)" fill="#FDFFFF"/>
<path d="M118.792 170.185C119.411 168.387 121.954 168.387 122.573 170.185L123.909 174.06C124.187 174.867 124.946 175.408 125.8 175.408H129.859C131.825 175.408 132.611 177.947 130.989 179.058L127.912 181.165C127.169 181.674 126.858 182.616 127.151 183.467L128.374 187.013C129.002 188.835 126.943 190.404 125.353 189.315L121.812 186.891C121.131 186.424 120.233 186.424 119.552 186.891L116.012 189.315C114.422 190.404 112.363 188.835 112.991 187.013L114.213 183.467C114.507 182.616 114.195 181.674 113.453 181.165L110.376 179.058C108.754 177.947 109.54 175.408 111.506 175.408H115.565C116.418 175.408 117.178 174.867 117.456 174.06L118.792 170.185Z" fill="#FFED02"/>
<path d="M133.943 106.57C132.225 112.389 126.81 116.643 120.392 116.643C114.107 116.643 108.793 112.567 106.956 106.938C106.863 106.655 106.772 106.372 106.698 106.082C106.418 104.976 106.268 103.823 106.268 102.629C106.268 102.092 106.309 101.563 106.368 101.04C107.019 95.3471 111.097 90.6912 116.508 89.1576C117.233 88.9512 117.991 88.8107 118.762 88.72C119.295 88.6559 119.836 88.6203 120.392 88.6203C121.897 88.6203 123.347 88.857 124.712 89.2928C125.257 89.4672 125.795 89.6718 126.313 89.9137C131.156 92.1358 134.511 96.991 134.511 102.629C134.511 104.001 134.31 105.317 133.943 106.57ZM95.407 106.082C93.8596 112.152 88.3189 116.643 81.7184 116.643C75.4425 116.643 70.1367 112.576 68.2952 106.961C68.254 106.828 68.1984 106.701 68.1625 106.57C67.7949 105.317 67.5941 104.001 67.5941 102.629C67.5941 102.106 67.63 101.59 67.6891 101.076C68.2414 96.1121 71.4027 91.9259 75.7922 89.9137C77.137 89.2928 78.5966 88.8747 80.1333 88.7057C80.6533 88.647 81.1805 88.6203 81.7184 88.6203C83.0633 88.6203 84.3668 88.8107 85.5969 89.1576C85.7529 89.2021 85.9035 89.2573 86.056 89.3071C91.7293 91.1253 95.8374 96.395 95.8374 102.629C95.8374 103.823 95.6867 104.976 95.407 106.082ZM133.925 85.2632H68.1805C65.9875 85.2632 64.2105 87.0263 64.2105 89.2021V102.629C64.2105 112.222 72.0464 120 81.7184 120C90.0761 120 97.0674 114.184 98.8032 106.404C98.8301 106.301 98.9036 105.968 98.9125 105.913C99.0829 104.888 99.9741 104.106 101.052 104.106C102.14 104.106 103.031 104.897 103.196 105.931C103.2 105.981 103.273 106.29 103.297 106.395C105.032 114.175 112.024 120 120.392 120C130.053 120 137.895 112.222 137.895 102.629V89.2021C137.895 87.0263 136.118 85.2632 133.925 85.2632Z" fill="#1ABCFE"/>
</svg>
