<svg width="200" height="200" viewBox="0 0 200 200" fill="none" xmlns="http://www.w3.org/2000/svg">
<rect width="200" height="200" rx="30" fill="#FFD8BF"/>
<path d="M66.3157 181.789C66.3157 167.43 77.9563 155.789 92.3157 155.789H109.789C124.149 155.789 135.789 167.43 135.789 181.789V200H66.3157V181.789Z" fill="#FF5C00"/>
<path d="M89.4736 132.632H112.632V157.895C112.632 164.29 107.447 169.474 101.053 169.474V169.474C94.6577 169.474 89.4736 164.29 89.4736 157.895V132.632Z" fill="#905940"/>
<ellipse cx="148.421" cy="104.737" rx="11.5789" ry="11.0526" fill="#905940"/>
<ellipse cx="54.2105" cy="104.737" rx="12.1053" ry="11.0526" fill="#905940"/>
<path d="M53.6842 101.053C53.6842 91.4149 53.6842 86.596 54.5767 82.6065C57.7048 68.6242 68.6242 57.7048 82.6065 54.5767C86.596 53.6842 91.4149 53.6842 101.053 53.6842V53.6842C110.69 53.6842 115.509 53.6842 119.499 54.5767C133.481 57.7048 144.4 68.6242 147.529 82.6065C148.421 86.596 148.421 91.4149 148.421 101.053V104.211C148.421 113.848 148.421 118.667 147.529 122.657C144.4 136.639 133.481 147.558 119.499 150.686C115.509 151.579 110.69 151.579 101.053 151.579V151.579C91.4149 151.579 86.596 151.579 82.6065 150.686C68.6242 147.558 57.7048 136.639 54.5767 122.657C53.6842 118.667 53.6842 113.848 53.6842 104.211V101.053Z" fill="#A56649"/>
<path d="M97.3934 122.217C95.1921 120.142 95.1921 116.777 97.3934 114.702L100.652 111.631C101.053 111.252 101.705 111.252 102.107 111.631L105.365 114.702C107.566 116.777 107.566 120.142 105.365 122.217V122.217C103.164 124.292 99.5948 124.292 97.3934 122.217V122.217Z" fill="#905940"/>
<path d="M91.5789 133.684C93.0105 132.281 96.5356 131.579 100.884 131.579C105.233 131.579 108.042 132.515 109.474 133.684" stroke="#88401F" stroke-width="5" stroke-linecap="round"/>
<ellipse cx="136.316" cy="54.2105" rx="31.0526" ry="27.8947" fill="#311203"/>
<ellipse cx="101.053" cy="54.7368" rx="16.8421" ry="15.7895" fill="#311203"/>
<ellipse cx="142.105" cy="87.3684" rx="13.6842" ry="12.6316" fill="#311203"/>
<path d="M81.1305 116.889C73.2049 116.889 66.7788 110.832 66.7788 103.357C66.7788 95.8787 73.2049 89.8216 81.1305 89.8216C89.0543 89.8216 95.4822 95.8787 95.4822 103.357C95.4822 110.832 89.0543 116.889 81.1305 116.889ZM81.1305 86.5791C71.3064 86.5791 63.3444 94.0934 63.3444 103.357C63.3444 112.622 71.3064 120.131 81.1305 120.131C90.9528 120.131 98.9184 112.622 98.9184 103.357C98.9184 94.0934 90.9528 86.5791 81.1305 86.5791Z" fill="#78B13C"/>
<path d="M120.427 116.889C112.501 116.889 106.075 110.832 106.075 103.357C106.075 95.8787 112.501 89.8215 120.427 89.8215C128.351 89.8215 134.778 95.8787 134.778 103.357C134.778 110.832 128.351 116.889 120.427 116.889ZM120.427 86.579C110.603 86.579 102.641 94.0933 102.641 103.357C102.641 112.622 110.603 120.131 120.427 120.131C130.249 120.131 138.215 112.622 138.215 103.357C138.215 94.0933 130.249 86.579 120.427 86.579Z" fill="#78B13C"/>
<rect x="97.1653" y="100.748" width="7.51579" height="6.19899" fill="#78B13C"/>
<rect x="68.0417" y="91.007" width="25.3658" height="24.7959" rx="12.398" fill="#FEFEFE"/>
<ellipse cx="80.7246" cy="104.733" rx="8.925" ry="8.41291" fill="#1652A4"/>
<ellipse cx="83.0733" cy="105.619" rx="2.81842" ry="3.09949" fill="#FEFEFE"/>
<rect x="109.379" y="91.007" width="25.3658" height="24.7959" rx="12.398" fill="#FEFEFE"/>
<ellipse cx="122.061" cy="104.733" rx="8.925" ry="8.41291" fill="#1652A4"/>
<ellipse cx="124.41" cy="105.619" rx="2.81842" ry="3.09949" fill="#FEFEFE"/>
</svg>
