<svg width="200" height="200" viewBox="0 0 200 200" fill="none" xmlns="http://www.w3.org/2000/svg">
<rect width="200" height="200" rx="30" fill="#7210B5"/>
<path d="M66.3158 183.895C66.3158 169.535 77.9564 157.895 92.3158 157.895H111.895C126.254 157.895 137.895 169.535 137.895 183.895V200H66.3158V183.895Z" fill="#FFE500"/>
<ellipse cx="12.1053" cy="11.5789" rx="12.1053" ry="11.5789" transform="matrix(-1 0 0 1 61.0526 102.105)" fill="#FF5C00"/>
<circle cx="12.1053" cy="12.1053" r="12.1053" transform="matrix(-1 0 0 1 70.5264 116.842)" fill="#FF5C00"/>
<circle cx="7.89474" cy="7.89474" r="7.89474" transform="matrix(-1 0 0 1 76.842 132.632)" fill="#FF5C00"/>
<circle cx="7.89474" cy="7.89474" r="7.89474" transform="matrix(-1 0 0 1 142.105 132.632)" fill="#FF5C00"/>
<circle cx="12.1053" cy="12.1053" r="12.1053" transform="matrix(-1 0 0 1 157.895 116.842)" fill="#FF5C00"/>
<ellipse cx="12.1053" cy="11.5789" rx="12.1053" ry="11.5789" transform="matrix(-1 0 0 1 165.263 102.105)" fill="#FF5C00"/>
<path d="M90.5264 133.684H113.684V158.947C113.684 165.342 108.5 170.526 102.105 170.526V170.526C95.7104 170.526 90.5264 165.342 90.5264 158.947V133.684Z" fill="#F3975D"/>
<ellipse cx="148.718" cy="104.754" rx="11.7434" ry="11.0696" fill="#F3975D"/>
<ellipse cx="54.7708" cy="104.754" rx="11.7434" ry="11.0696" fill="#F3975D"/>
<rect x="55.7894" y="54.7368" width="93.6842" height="98.9474" rx="46.8421" fill="#FFB89E"/>
<path d="M55.7894 79.7369C55.7894 65.9297 66.9823 54.7368 80.7894 54.7368H124.474C138.281 54.7368 149.474 65.9297 149.474 79.7368V92.8947C149.474 106.702 138.281 117.895 124.474 117.895H80.7894C66.9823 117.895 55.7894 106.702 55.7894 92.8947V79.7369Z" fill="#FFB89E"/>
<path d="M98.6843 123.045C96.483 120.97 96.483 117.605 98.6843 115.53L101.943 112.459C102.344 112.08 102.996 112.08 103.398 112.459L106.656 115.53C108.857 117.605 108.857 120.97 106.656 123.045V123.045C104.455 125.12 100.886 125.12 98.6843 123.045V123.045Z" fill="#F3975D"/>
<path d="M96.842 137.895H108.421" stroke="#F38360" stroke-width="5" stroke-linecap="round"/>
<rect x="108.79" y="92.7203" width="25.3658" height="24.7959" rx="12.398" fill="#FEFEFE"/>
<ellipse cx="118.655" cy="107.332" rx="4.22763" ry="5.7562" fill="#905940"/>
<path d="M108.79 105.403C108.79 98.3986 114.469 92.7203 121.473 92.7203V92.7203C128.478 92.7203 134.156 98.3986 134.156 105.403V106.004H108.79V105.403Z" fill="#59C015"/>
<rect x="69.3325" y="92.7203" width="25.3658" height="24.7959" rx="12.398" fill="#FEFEFE"/>
<ellipse cx="79.197" cy="107.332" rx="4.22763" ry="5.7562" fill="#905940"/>
<path d="M69.3325 105.403C69.3325 98.3986 75.0108 92.7203 82.0154 92.7203V92.7203C89.02 92.7203 94.6983 98.3986 94.6983 105.403V106.004H69.3325V105.403Z" fill="#59C015"/>
<circle cx="52.6316" cy="118.947" r="5.26316" fill="#FFE500"/>
<circle cx="52.6315" cy="126.577" r="3.15789" fill="#59C015"/>
<circle cx="152.632" cy="118.947" r="5.26316" fill="#FFE500"/>
<circle cx="152.632" cy="126.577" r="3.15789" fill="#59C015"/>
<circle cx="78.421" cy="60.5263" r="16.3158" fill="#FF5C00"/>
<circle cx="101.579" cy="54.2105" r="14.2105" fill="#FF5C00"/>
<ellipse cx="55.7894" cy="77.3684" rx="18.9474" ry="19.4737" fill="#FF5C00"/>
<circle cx="16.3158" cy="16.3158" r="16.3158" transform="matrix(-1 0 0 1 141.053 44.2105)" fill="#FF5C00"/>
<circle cx="19.4737" cy="19.4737" r="19.4737" transform="matrix(-1 0 0 1 166.316 57.8947)" fill="#FF5C00"/>
<ellipse cx="12.1053" cy="12.6316" rx="12.1053" ry="12.6316" transform="matrix(-1 0 0 1 166.316 86.3158)" fill="#FF5C00"/>
<ellipse cx="11.5789" cy="12.6316" rx="11.5789" ry="12.6316" transform="matrix(-1 0 0 1 56.842 86.3158)" fill="#FF5C00"/>
<circle cx="6.84211" cy="6.84211" r="6.84211" transform="matrix(-1 0 0 1 66.3158 50.5263)" fill="#FF5C00"/>
<ellipse cx="7.36842" cy="6.84211" rx="7.36842" ry="6.84211" transform="matrix(-1 0 0 1 150.526 50.5263)" fill="#FF5C00"/>
<circle cx="4.73684" cy="4.73684" r="4.73684" transform="matrix(-1 0 0 1 91.579 41.0526)" fill="#FF5C00"/>
<circle cx="4.73684" cy="4.73684" r="4.73684" transform="matrix(-1 0 0 1 121.053 41.0526)" fill="#FF5C00"/>
</svg>
