<svg width="200" height="200" viewBox="0 0 200 200" fill="none" xmlns="http://www.w3.org/2000/svg">
<rect width="200" height="200" rx="30" fill="#FF363C"/>
<path d="M44.0488 76.0836C45.4771 53.431 64.266 35.7895 86.9635 35.7895H113.036C135.734 35.7895 154.523 53.431 155.951 76.0836L159.223 127.978C160.785 152.742 141.121 173.684 116.309 173.684H83.6914C58.8787 173.684 39.2152 152.742 40.7766 127.978L44.0488 76.0836Z" fill="#874D33"/>
<path d="M63.1579 182.842C63.1579 168.483 74.7985 156.842 89.1579 156.842H108.737C123.096 156.842 134.737 168.483 134.737 182.842V200H63.1579V182.842Z" fill="#1ABCFE"/>
<path d="M87.3684 132.5H110.855V157.95C110.855 164.436 105.598 169.694 99.1118 169.694V169.694C92.6261 169.694 87.3684 164.436 87.3684 157.95V132.5Z" fill="#ED8A4B"/>
<circle cx="145.263" cy="103.158" r="10.5263" fill="#ED8A4B"/>
<circle cx="54.7368" cy="103.158" r="10.5263" fill="#ED8A4B"/>
<rect x="52.6316" y="53.6842" width="93.9474" height="98.2982" rx="46.9737" fill="#FFB89E"/>
<path d="M95.5648 122.088C93.3634 120.013 93.3634 116.649 95.5648 114.574L98.8229 111.502C99.2248 111.124 99.8764 111.124 100.278 111.502L103.536 114.574C105.738 116.649 105.738 120.013 103.536 122.088V122.088C101.335 124.163 97.7661 124.163 95.5648 122.088V122.088Z" fill="#ED8A4B"/>
<path d="M93.6842 136.485L94.977 136.682C97.9566 137.137 100.989 137.124 103.965 136.645L104.958 136.485" stroke="#ED8A4B" stroke-width="5" stroke-linecap="round"/>
<rect x="68.421" y="90.5263" width="25.2632" height="26.3158" rx="12.6316" fill="#FEFEFE"/>
<ellipse cx="79.0719" cy="103.028" rx="8.45526" ry="7.97012" fill="#1ABCFE"/>
<ellipse cx="75.6946" cy="102.044" rx="1.80642" ry="3.0107" fill="#FEFEFE"/>
<rect x="107.368" y="90.5263" width="25.2632" height="26.3158" rx="12.6316" fill="#FEFEFE"/>
<ellipse cx="117.268" cy="103.028" rx="8.45526" ry="7.97012" fill="#1ABCFE"/>
<ellipse cx="113.89" cy="102.044" rx="1.80642" ry="3.0107" fill="#FEFEFE"/>
<path d="M79.2936 118.731C71.368 118.731 64.9419 112.674 64.9419 105.199C64.9419 97.7207 71.368 91.6636 79.2936 91.6636C87.2174 91.6636 93.6453 97.7207 93.6453 105.199C93.6453 112.674 87.2174 118.731 79.2936 118.731ZM79.2936 88.4211C69.4695 88.4211 61.5075 95.9354 61.5075 105.199C61.5075 114.464 69.4695 121.973 79.2936 121.973C89.1159 121.973 97.0816 114.464 97.0816 105.199C97.0816 95.9354 89.1159 88.4211 79.2936 88.4211Z" fill="#78B13C"/>
<path d="M118.59 118.731C110.664 118.731 104.238 112.674 104.238 105.199C104.238 97.7207 110.664 91.6636 118.59 91.6636C126.514 91.6636 132.942 97.7207 132.942 105.199C132.942 112.674 126.514 118.731 118.59 118.731ZM118.59 88.4211C108.766 88.4211 100.804 95.9354 100.804 105.199C100.804 114.464 108.766 121.973 118.59 121.973C128.412 121.973 136.378 114.464 136.378 105.199C136.378 95.9354 128.412 88.4211 118.59 88.4211Z" fill="#78B13C"/>
<rect x="95.3284" y="102.59" width="7.51579" height="6.19899" fill="#78B13C"/>
<path d="M79.5718 88.4211H61.5138C57.8496 88.4211 56.5129 93.2467 59.655 95.1319L63.5238 97.4532L67.1366 95.6468L79.5718 88.4211Z" fill="#78B13C"/>
<path d="M118.609 88.4211H136.667C140.332 88.4211 141.668 93.2467 138.526 95.1319L134.399 97.5943L131.045 95.6468L118.609 88.4211Z" fill="#78B13C"/>
<circle cx="100.526" cy="54.2105" r="6.84211" fill="#874D33"/>
<circle cx="97.8947" cy="69.4737" r="9.47368" fill="#874D33"/>
<circle cx="110.526" cy="62.1053" r="12.6316" fill="#874D33"/>
<ellipse cx="83.6841" cy="64.2105" rx="16.3158" ry="16.8421" fill="#874D33"/>
<circle cx="65.2631" cy="70.5263" r="15.7895" fill="#874D33"/>
<circle cx="137.895" cy="73.6842" r="13.6842" fill="#874D33"/>
<circle cx="126.842" cy="67.8947" r="14.2105" fill="#874D33"/>
</svg>
