<svg width="200" height="200" viewBox="0 0 200 200" fill="none" xmlns="http://www.w3.org/2000/svg">
<path d="M0 30C0 13.4315 13.4315 0 30 0H170C186.569 0 200 13.4315 200 30V170C200 186.569 186.569 200 170 200H30C13.4315 200 0 186.569 0 170V30Z" fill="#FFFDDD"/>
<path d="M64 184C64 169.641 75.6406 158 90 158H110C124.359 158 136 169.641 136 184V200H64V184Z" fill="#59C015"/>
<path d="M88.0262 132.5H111.513V157.95C111.513 164.436 106.255 169.694 99.7697 169.694V169.694C93.284 169.694 88.0262 164.436 88.0262 157.95V132.5Z" fill="#BF6A34"/>
<ellipse cx="146.743" cy="103.798" rx="11.7434" ry="11.0696" fill="#BF6A34"/>
<ellipse cx="52.796" cy="103.798" rx="11.7434" ry="11.0696" fill="#BF6A34"/>
<rect x="53.2657" y="53.6842" width="93.9474" height="98.2982" rx="46.9737" fill="#DC7F44"/>
<path d="M96.7095 122.088C94.5082 120.013 94.5082 116.649 96.7095 114.574L99.9677 111.502C100.37 111.124 101.021 111.124 101.423 111.502L104.681 114.574C106.882 116.649 106.883 120.013 104.681 122.088V122.088C102.48 124.163 98.9108 124.163 96.7095 122.088V122.088Z" fill="#BF6A34"/>
<path d="M106.469 134.196C104.904 136.576 102.327 137.365 99.5508 136.743" stroke="#B65E24" stroke-width="5" stroke-linecap="round"/>
<rect x="68.421" y="90.5263" width="25.2632" height="26.3158" rx="12.6316" fill="#FEFEFE"/>
<ellipse cx="79.0719" cy="103.028" rx="8.45526" ry="7.97012" fill="#864B31"/>
<ellipse cx="75.6947" cy="102.044" rx="1.80642" ry="3.0107" fill="#FEFEFE"/>
<rect x="107.368" y="90.5263" width="25.2632" height="26.3158" rx="12.6316" fill="#FEFEFE"/>
<ellipse cx="117.268" cy="103.028" rx="8.45526" ry="7.97012" fill="#864B31"/>
<ellipse cx="113.89" cy="102.044" rx="1.80642" ry="3.0107" fill="#FEFEFE"/>
<circle cx="97.3684" cy="68.9473" r="11.0526" fill="#905940"/>
<circle cx="95.2631" cy="46.8421" r="12.1053" fill="#905940"/>
<circle cx="112.632" cy="56.8421" r="20" fill="#905940"/>
<circle cx="82.1052" cy="57.8947" r="16.8421" fill="#905940"/>
<circle cx="66.3158" cy="65.2632" r="11.5789" fill="#905940"/>
<circle cx="66.3157" cy="70.5263" r="10.5263" fill="#905940"/>
<rect x="52.6315" y="70.5263" width="96.8421" height="14.7368" rx="5" fill="#FF363C"/>
<circle cx="140" cy="67.3684" r="9.47368" fill="#905940"/>
<circle cx="127.368" cy="64.2105" r="10.5263" fill="#905940"/>
<circle cx="129.474" cy="55.7895" r="12.6316" fill="#905940"/>
</svg>
