<svg width="500" height="500" viewBox="0 0 500 500" fill="none" xmlns="http://www.w3.org/2000/svg">
<g clip-path="url(#clip0_1_160)">
<path d="M500 500H0V-7.45058e-06H500V500Z" fill="#08847B"/>
<path d="M493.042 90.3325V97.1675H486.085V90.3325H493.042Z" fill="#A41881"/>
<path d="M479.125 256.958V263.918H472.165V256.958H479.125Z" fill="#F8F940"/>
<path d="M472.165 479.127V486.082H465.333V479.127H472.165Z" fill="#D02E8B"/>
<path d="M472.165 375V381.957H465.333V375H472.165Z" fill="#FFA286"/>
<path d="M472.165 48.585V55.5424H465.333V48.585H472.165Z" fill="#D02E8B"/>
<path d="M465.333 55.5424V62.4975H458.373V55.5424H465.333Z" fill="#D02E8B"/>
<path d="M465.333 48.585V55.5424H458.373V48.585H465.333Z" fill="#FFA286"/>
<path d="M465.333 41.625V48.585H458.373V41.625H465.333Z" fill="#D02E8B"/>
<path d="M458.373 194.457V201.415H451.417V194.457H458.373Z" fill="#D02E8B"/>
<path d="M458.373 48.585V55.5424H451.417V48.585H458.373Z" fill="#D02E8B"/>
<path d="M451.417 256.958V263.918H444.458V256.958H451.417Z" fill="#FFA286"/>
<path d="M444.458 263.918V270.873H437.5V263.918H444.458Z" fill="#FFA286"/>
<path d="M444.458 256.958V263.918H437.5V256.958H444.458Z" fill="#D02E8B"/>
<path d="M444.458 250V256.958H437.5V250H444.458Z" fill="#FFA286"/>
<path d="M444.458 131.957V138.917H437.5V131.957H444.458Z" fill="#FFA286"/>
<path d="M437.5 465.332V472.167H430.542V465.332H437.5Z" fill="#F8F940"/>
<path d="M437.5 256.958V263.918H430.542V256.958H437.5Z" fill="#FFA286"/>
<path d="M437.5 -1.03675e-07V6.95752H430.542V-1.03675e-07H437.5Z" fill="#FFA286"/>
<path d="M430.543 472.167V479.127H423.58V472.167H430.543Z" fill="#F8F940"/>
<path d="M430.543 465.332V472.167H423.58V465.332H430.543Z" fill="#D02E8B"/>
<path d="M430.543 458.375V465.332H423.58V458.375H430.543Z" fill="#F8F940"/>
<path d="M423.58 465.332V472.167H416.627V465.332H423.58Z" fill="#F8F940"/>
<path d="M416.627 333.375V340.332H409.667V333.375H416.627Z" fill="#FFA286"/>
<path d="M409.668 97.1675V104.127H402.833V97.1675H409.668Z" fill="#FFA286"/>
<path d="M395.872 423.585V430.542H388.912V423.585H395.872Z" fill="#D02E8B"/>
<path d="M395.872 381.958V388.918H388.912V381.958H395.872Z" fill="#A41881"/>
<path d="M395.872 229.127V236.082H388.912V229.127H395.872Z" fill="#F8F940"/>
<path d="M388.913 388.918V395.872H381.958V388.918H388.913Z" fill="#A41881"/>
<path d="M388.913 381.958V388.918H381.958V381.958H388.913Z" fill="#F8F940"/>
<path d="M388.913 375V381.957H381.958V375H388.913Z" fill="#A41881"/>
<path d="M381.958 381.958V388.918H375.003V381.958H381.958Z" fill="#A41881"/>
<path d="M381.958 152.833V159.668H375.003V152.833H381.958Z" fill="#A41881"/>
<path d="M381.958 111.083V118.043H375.003V111.083H381.958Z" fill="#A41881"/>
<path d="M375.002 118.042V125H368.042V118.042H375.002Z" fill="#A41881"/>
<path d="M375.002 111.083V118.043H368.042V111.083H375.002Z" fill="#FFA286"/>
<path d="M375.002 104.127V111.082H368.042V104.127H375.002Z" fill="#A41881"/>
<path d="M375.002 27.8325V34.6674H368.042V27.8325H375.002Z" fill="#F8F940"/>
<path d="M368.042 111.083V118.043H361.085V111.083H368.042Z" fill="#A41881"/>
<path d="M361.085 298.585V305.542H354.123V298.585H361.085Z" fill="#FFA286"/>
<path d="M354.123 305.542V312.497H347.165V305.542H354.123Z" fill="#FFA286"/>
<path d="M354.123 298.585V305.542H347.165V298.585H354.123Z" fill="#A41881"/>
<path d="M354.123 291.625V298.585H347.165V291.625H354.123Z" fill="#FFA286"/>
<path d="M354.123 6.95749V13.9174H347.165V6.95749H354.123Z" fill="#F8F940"/>
<path d="M347.165 298.585V305.542H340.333V298.585H347.165Z" fill="#FFA286"/>
<path d="M347.165 13.9174V20.8725H340.333V13.9174H347.165Z" fill="#F8F940"/>
<path d="M347.165 6.95749V13.9174H340.333V6.95749H347.165Z" fill="#A41881"/>
<path d="M347.165 -1.03675e-07V6.95752H340.333V-1.03675e-07H347.165Z" fill="#F8F940"/>
<path d="M340.333 444.457V451.415H333.373V444.457H340.333Z" fill="#FFA286"/>
<path d="M340.333 6.95749V13.9174H333.373V6.95749H340.333Z" fill="#F8F940"/>
<path d="M333.372 451.415V458.375H326.417V451.415H333.372Z" fill="#FFA286"/>
<path d="M333.372 444.457V451.415H326.417V444.457H333.372Z" fill="#D02E8B"/>
<path d="M333.372 437.497V444.457H326.417V437.497H333.372Z" fill="#FFA286"/>
<path d="M333.372 243.042V250H326.417V243.042H333.372Z" fill="#FFA286"/>
<path d="M333.372 76.415V83.375H326.417V76.415H333.372Z" fill="#D02E8B"/>
<path d="M326.418 444.457V451.415H319.458V444.457H326.418Z" fill="#FFA286"/>
<path d="M319.458 388.918V395.872H312.498V388.918H319.458Z" fill="#F8F940"/>
<path d="M319.458 201.415V208.375H312.498V201.415H319.458Z" fill="#FFA286"/>
<path d="M312.497 159.667V166.625H305.542V159.667H312.497Z" fill="#F8F940"/>
<path d="M305.543 166.625V173.585H298.58V166.625H305.543Z" fill="#F8F940"/>
<path d="M305.543 159.667V166.625H298.58V159.667H305.543Z" fill="#A41881"/>
<path d="M305.543 152.833V159.668H298.58V152.833H305.543Z" fill="#F8F940"/>
<path d="M298.58 277.832V284.667H291.628V277.832H298.58Z" fill="#D02E8B"/>
<path d="M298.58 159.667V166.625H291.628V159.667H298.58Z" fill="#F8F940"/>
<path d="M284.67 333.375V340.332H277.835V333.375H284.67Z" fill="#FFA286"/>
<path d="M277.835 479.127V486.082H270.873V479.127H277.835Z" fill="#D02E8B"/>
<path d="M270.872 486.082V493.042H263.917V486.082H270.872Z" fill="#D02E8B"/>
<path d="M270.872 479.127V486.082H263.917V479.127H270.872Z" fill="#F8F940"/>
<path d="M270.872 472.167V479.127H263.917V472.167H270.872Z" fill="#D02E8B"/>
<path d="M270.872 437.497V444.457H263.917V437.497H270.872Z" fill="#FFA286"/>
<path d="M270.872 229.127V236.082H263.917V229.127H270.872Z" fill="#D02E8B"/>
<path d="M263.918 479.127V486.082H256.958V479.127H263.918Z" fill="#D02E8B"/>
<path d="M263.918 236.082V243.042H256.958V236.082H263.918Z" fill="#D02E8B"/>
<path d="M263.918 229.127V236.082H256.958V229.127H263.918Z" fill="#FFA286"/>
<path d="M263.918 222.167V229.127H256.958V222.167H263.918Z" fill="#D02E8B"/>
<path d="M256.957 229.127V236.082H250.002V229.127H256.957Z" fill="#D02E8B"/>
<path d="M256.957 131.957V138.917H250.002V131.957H256.957Z" fill="#FFA286"/>
<path d="M256.957 41.625V48.585H250.002V41.625H256.957Z" fill="#D02E8B"/>
<path d="M250.002 340.332V347.167H243.042V340.332H250.002Z" fill="#F8F940"/>
<path d="M250.002 48.585V55.5424H243.042V48.585H250.002Z" fill="#D02E8B"/>
<path d="M250.002 41.625V48.585H243.042V41.625H250.002Z" fill="#F8F940"/>
<path d="M250.002 34.6674V41.625H243.042V34.6674H250.002Z" fill="#D02E8B"/>
<path d="M243.042 347.167V354.127H236.082V347.167H243.042Z" fill="#F8F940"/>
<path d="M243.042 340.332V347.167H236.082V340.332H243.042Z" fill="#D02E8B"/>
<path d="M243.042 333.375V340.332H236.082V333.375H243.042Z" fill="#F8F940"/>
<path d="M243.042 263.918V270.873H236.082V263.918H243.042Z" fill="#F8F940"/>
<path d="M243.042 41.625V48.585H236.082V41.625H243.042Z" fill="#D02E8B"/>
<path d="M236.082 340.332V347.167H229.125V340.332H236.082Z" fill="#F8F940"/>
<path d="M236.082 6.95749V13.9174H229.125V6.95749H236.082Z" fill="#FFA286"/>
<path d="M229.125 395.872V402.832H222.166V395.872H229.125Z" fill="#FFA286"/>
<path d="M215.33 465.332V472.167H208.373V465.332H215.33Z" fill="#D02E8B"/>
<path d="M215.33 145.872V152.832H208.373V145.872H215.33Z" fill="#FFA286"/>
<path d="M208.373 208.375V215.332H201.417V208.375H208.373Z" fill="#FFA286"/>
<path d="M208.373 152.833V159.668H201.417V152.833H208.373Z" fill="#FFA286"/>
<path d="M208.373 145.872V152.832H201.417V145.872H208.373Z" fill="#A41881"/>
<path d="M208.373 138.917V145.872H201.417V138.917H208.373Z" fill="#FFA286"/>
<path d="M208.373 97.1675V104.127H201.417V97.1675H208.373Z" fill="#F8F940"/>
<path d="M201.417 145.872V152.832H194.457V145.872H201.417Z" fill="#FFA286"/>
<path d="M187.5 326.415V333.375H180.541V326.415H187.5Z" fill="#FFA286"/>
<path d="M180.541 270.872V277.832H173.581V270.872H180.541Z" fill="#A41881"/>
<path d="M173.581 277.832V284.667H166.627V277.832H173.581Z" fill="#A41881"/>
<path d="M173.581 270.872V277.832H166.627V270.872H173.581Z" fill="#F8F940"/>
<path d="M173.581 263.918V270.873H166.627V263.918H173.581Z" fill="#A41881"/>
<path d="M166.627 444.457V451.415H159.667V444.457H166.627Z" fill="#F8F940"/>
<path d="M166.627 270.872V277.832H159.667V270.872H166.627Z" fill="#A41881"/>
<path d="M159.667 187.497V194.457H152.832V187.497H159.667Z" fill="#A41881"/>
<path d="M159.667 69.4575V76.4149H152.832V69.4575H159.667Z" fill="#FFA286"/>
<path d="M159.667 20.8725V27.8325H152.832V20.8725H159.667Z" fill="#F8F940"/>
<path d="M152.831 27.8325V34.6674H145.872V27.8325H152.831Z" fill="#F8F940"/>
<path d="M152.831 20.8725V27.8325H145.872V20.8725H152.831Z" fill="#D02E8B"/>
<path d="M152.831 13.9174V20.8725H145.872V13.9174H152.831Z" fill="#F8F940"/>
<path d="M145.872 20.8725V27.8325H138.915V20.8725H145.872Z" fill="#F8F940"/>
<path d="M138.915 375V381.957H131.958V375H138.915Z" fill="#FFA286"/>
<path d="M131.958 381.958V388.918H125.001V381.958H131.958Z" fill="#FFA286"/>
<path d="M131.958 375V381.957H125.001V375H131.958Z" fill="#A41881"/>
<path d="M131.958 368.042V375H125.001V368.042H131.958Z" fill="#FFA286"/>
<path d="M125.001 375V381.957H118.042V375H125.001Z" fill="#FFA286"/>
<path d="M125.001 256.958V263.918H118.042V256.958H125.001Z" fill="#F8F940"/>
<path d="M125.001 118.042V125H118.042V118.042H125.001Z" fill="#A41881"/>
<path d="M118.042 423.585V430.542H111.085V423.585H118.042Z" fill="#FFA286"/>
<path d="M118.042 166.625V173.585H111.085V166.625H118.042Z" fill="#FFA286"/>
<path d="M118.042 125V131.957H111.085V125H118.042Z" fill="#A41881"/>
<path d="M118.042 118.042V125H111.085V118.042H118.042Z" fill="#F8F940"/>
<path d="M118.042 111.083V118.043H111.085V111.083H118.042Z" fill="#A41881"/>
<path d="M118.042 34.6674V41.625H111.085V34.6674H118.042Z" fill="#D02E8B"/>
<path d="M111.085 479.127V486.082H104.123V479.127H111.085Z" fill="#FFA286"/>
<path d="M111.085 319.457V326.415H104.123V319.457H111.085Z" fill="#D02E8B"/>
<path d="M111.085 118.042V125H104.123V118.042H111.085Z" fill="#A41881"/>
<path d="M76.4165 465.332V472.167H69.457V465.332H76.4165Z" fill="#A41881"/>
<path d="M76.4165 395.872V402.832H69.457V395.872H76.4165Z" fill="#D02E8B"/>
<path d="M76.4165 201.415V208.375H69.457V201.415H76.4165Z" fill="#A41881"/>
<path d="M69.457 472.167V479.127H62.4973V472.167H69.457Z" fill="#A41881"/>
<path d="M69.457 465.332V472.167H62.4973V465.332H69.457Z" fill="#F8F940"/>
<path d="M69.457 458.375V465.332H62.4973V458.375H69.457Z" fill="#A41881"/>
<path d="M69.457 277.832V284.667H62.4973V277.832H69.457Z" fill="#FFA286"/>
<path d="M69.457 111.083V118.043H62.4973V111.083H69.457Z" fill="#F8F940"/>
<path d="M62.4972 465.332V472.167H55.543V465.332H62.4972Z" fill="#A41881"/>
<path d="M62.4972 13.9174V20.8725H55.543V13.9174H62.4972Z" fill="#F8F940"/>
<path d="M55.543 180.542V187.497H48.581V180.542H55.543Z" fill="#F8F940"/>
<path d="M48.581 187.497V194.457H41.6268V187.497H48.581Z" fill="#F8F940"/>
<path d="M48.581 180.542V187.497H41.6268V180.542H48.581Z" fill="#A41881"/>
<path d="M48.581 173.585V180.542H41.6268V173.585H48.581Z" fill="#F8F940"/>
<path d="M41.6267 180.542V187.497H34.667V180.542H41.6267Z" fill="#F8F940"/>
<path d="M41.6267 62.4975V69.4575H34.667V62.4975H41.6267Z" fill="#FFA286"/>
<path d="M34.667 236.082V243.042H27.8315V236.082H34.667Z" fill="#D02E8B"/>
<path d="M20.872 423.585V430.542H13.9179V423.585H20.872Z" fill="#F8F940"/>
<path d="M20.872 347.167V354.127H13.9179V347.167H20.872Z" fill="#FFA286"/>
<path d="M20.872 319.457V326.415H13.9179V319.457H20.872Z" fill="#D02E8B"/>
<path d="M13.9179 354.127V361.082H6.95819V354.127H13.9179Z" fill="#FFA286"/>
<path d="M13.9179 347.167V354.127H6.95819V347.167H13.9179Z" fill="#D02E8B"/>
<path d="M13.9179 340.332V347.167H6.95819V340.332H13.9179Z" fill="#FFA286"/>
<path d="M6.95824 347.167V354.127H0.00140381V347.167H6.95824Z" fill="#FFA286"/>
<path d="M6.95824 166.625V173.585H0.00140381V166.625H6.95824Z" fill="#FFA286"/>
<path d="M6.95824 20.8725V27.8325H0.00140381V20.8725H6.95824Z" fill="#FFA286"/>
</g>
<defs>
<clipPath id="clip0_1_160">
<rect width="500" height="500" fill="white"/>
</clipPath>
</defs>
</svg>
