<svg width="200" height="200" viewBox="0 0 200 200" fill="none" xmlns="http://www.w3.org/2000/svg">
<rect width="200" height="200" rx="30" fill="#58DC00"/>
<path fill-rule="evenodd" clip-rule="evenodd" d="M100.382 150.985C74.766 150.985 54 171.751 54 197.368V200H146.764V197.368C146.764 171.751 125.998 150.985 100.382 150.985Z" fill="#FFFDDD"/>
<path d="M89 133.064H112.158V158.327C112.158 164.722 106.974 169.906 100.579 169.906C94.1841 169.906 89 164.722 89 158.327V133.064Z" fill="#ED8A4B"/>
<ellipse cx="147.691" cy="103.982" rx="11.7434" ry="11.0696" fill="#ED8A4B"/>
<ellipse cx="53.7434" cy="103.982" rx="11.7434" ry="11.0696" fill="#ED8A4B"/>
<path d="M67.8933 132.725C49.1745 115.081 49.1745 86.4729 67.8933 68.8282C85.8633 51.8893 114.998 51.8893 132.968 68.8282C151.687 86.4729 151.687 115.081 132.968 132.725L120.806 144.19C109.553 154.797 91.3087 154.797 80.0559 144.19L67.8933 132.725Z" fill="#FFB89E"/>
<path d="M96.9858 122.273C94.7845 120.198 94.7845 116.833 96.9858 114.758L100.244 111.687C100.646 111.308 101.297 111.308 101.699 111.687L104.958 114.758C107.159 116.833 107.159 120.198 104.958 122.273C102.756 124.348 99.1872 124.348 96.9858 122.273Z" fill="#ED8A4B"/>
<path d="M96 136.106C99.1831 136.81 101.498 137.154 105.978 135.962" stroke="#F38360" stroke-width="4" stroke-linecap="round"/>
<rect width="25.2632" height="26.3158" rx="12.6316" transform="matrix(-1 0 0 1 132 88)" fill="#FEFEFE"/>
<ellipse cx="8.45526" cy="7.97012" rx="8.45526" ry="7.97012" transform="matrix(-1 0 0 1 129.804 92.532)" fill="#1ABCFE"/>
<ellipse cx="1.80642" cy="3.0107" rx="1.80642" ry="3.0107" transform="matrix(-1 0 0 1 126.533 96.5074)" fill="#FEFEFE"/>
<rect width="25.2632" height="26.3158" rx="12.6316" transform="matrix(-1 0 0 1 93.0526 88)" fill="#FEFEFE"/>
<ellipse cx="8.45526" cy="7.97012" rx="8.45526" ry="7.97012" transform="matrix(-1 0 0 1 91.6087 92.532)" fill="#1ABCFE"/>
<ellipse cx="1.80642" cy="3.0107" rx="1.80642" ry="3.0107" transform="matrix(-1 0 0 1 88.3371 96.5074)" fill="#FEFEFE"/>
<rect x="61.5" y="94.5" width="35" height="15" rx="2.5" stroke="#FF363C" stroke-width="3"/>
<rect x="103.5" y="94.5" width="35" height="15" rx="2.5" stroke="#FF363C" stroke-width="3"/>
<line x1="96" y1="100.5" x2="103" y2="100.5" stroke="#FF363C" stroke-width="3"/>
<path d="M54 99C53.1716 99 52.5 99.6716 52.5 100.5C52.5 101.328 53.1716 102 54 102V99ZM54 102H61V99H54V102Z" fill="#FF363C"/>
<path d="M146 102C146.828 102 147.5 101.328 147.5 100.5C147.5 99.6716 146.828 99 146 99L146 102ZM146 99L139 99L139 102L146 102L146 99Z" fill="#FF363C"/>
<ellipse cx="101" cy="66.5" rx="51" ry="9.5" fill="#FFE500"/>
<ellipse cx="98" cy="46" rx="37" ry="18" fill="#FFE500"/>
<ellipse cx="78" cy="54" rx="20" ry="18" fill="#FFE500"/>
<ellipse cx="125" cy="54" rx="20" ry="18" fill="#FFE500"/>
<circle cx="148.5" cy="59.5" r="9.5" fill="#FFE500"/>
<circle cx="52.5" cy="59.5" r="9.5" fill="#FFE500"/>
<circle cx="70.5" cy="36.5" r="9.5" fill="#FFE500"/>
<circle cx="100.5" cy="27.5" r="9.5" fill="#FFE500"/>
<circle cx="142.5" cy="47.5" r="9.5" fill="#FFE500"/>
<circle cx="85.5" cy="30.5" r="9.5" fill="#FFE500"/>
<circle cx="115.5" cy="30.5" r="9.5" fill="#FFE500"/>
<circle cx="129.5" cy="36.5" r="9.5" fill="#FFE500"/>
<circle cx="57.5" cy="47.5" r="9.5" fill="#FFE500"/>
<path d="M55.7069 92.7193C68.9254 73.3142 65.1878 63.3877 64.1423 57.8558C64.0496 57.3649 63.6278 57 63.1283 57H58.283C58.098 57 57.9166 57.0514 57.7589 57.1483L45.8517 64.4759C45.3813 64.7654 45.2357 65.381 45.5146 65.8577C51.158 75.5044 53.1675 87.0526 53.8205 92.2395C53.9376 93.1695 55.1792 93.494 55.7069 92.7193Z" fill="#FFE500"/>
<path d="M144.725 92.7193C131.507 73.3142 135.244 63.3877 136.29 57.8558C136.382 57.3649 136.804 57 137.304 57H142.149C142.334 57 142.516 57.0514 142.673 57.1483L154.58 64.4759C155.051 64.7654 155.196 65.381 154.917 65.8577C149.274 75.5044 147.265 87.0526 146.612 92.2395C146.494 93.1695 145.253 93.494 144.725 92.7193Z" fill="#FFE500"/>
</svg>
