<svg width="200" height="200" viewBox="0 0 200 200" fill="none" xmlns="http://www.w3.org/2000/svg">
<path d="M0 30C0 13.4315 13.4315 0 30 0H170C186.569 0 200 13.4315 200 30V170C200 186.569 186.569 200 170 200H30C13.4315 200 0 186.569 0 170V30Z" fill="#FB7EB8"/>
<circle cx="65.5" cy="140.5" r="15.5" fill="#FFFDDD"/>
<circle cx="133.5" cy="140.5" r="15.5" fill="#FFFDDD"/>
<circle cx="117.5" cy="140.5" r="15.5" fill="#FFFDDD"/>
<circle cx="87.5" cy="140.5" r="15.5" fill="#FFFDDD"/>
<circle cx="54.5" cy="116.5" r="15.5" fill="#FFFDDD"/>
<circle cx="56.5" cy="91.5" r="15.5" fill="#FFFDDD"/>
<circle cx="144.5" cy="91.5" r="15.5" fill="#FFFDDD"/>
<circle cx="56.5" cy="65.5" r="15.5" fill="#FFFDDD"/>
<circle cx="144.5" cy="65.5" r="15.5" fill="#FFFDDD"/>
<circle cx="147.5" cy="116.5" r="15.5" fill="#FFFDDD"/>
<circle cx="48" cy="98" r="15" fill="#FFFDDD"/>
<circle cx="151.5" cy="100.5" r="14.5" fill="#FFFDDD"/>
<path d="M64.0001 184C64.0001 169.641 75.6407 158 90.0001 158H110C124.359 158 136 169.641 136 184V200H64.0001V184Z" fill="#FFE500"/>
<path d="M88.0264 132.5H111.513V157.95C111.513 164.436 106.255 169.694 99.7698 169.694V169.694C93.2841 169.694 88.0264 164.436 88.0264 157.95V132.5Z" fill="#6E3820"/>
<ellipse cx="146.743" cy="103.798" rx="11.7434" ry="11.0696" fill="#6E3820"/>
<ellipse cx="52.7961" cy="103.798" rx="11.7434" ry="11.0696" fill="#6E3820"/>
<rect x="53.2658" y="53.6842" width="93.9474" height="98.2982" rx="46.9737" fill="#864B31"/>
<path d="M96.7095 122.088C94.5082 120.013 94.5082 116.649 96.7095 114.574L99.9677 111.502C100.37 111.124 101.021 111.124 101.423 111.502L104.681 114.574C106.883 116.649 106.883 120.013 104.681 122.088V122.088C102.48 124.163 98.9109 124.163 96.7095 122.088V122.088Z" fill="#6E3820"/>
<path d="M106.469 134.196C104.904 136.576 102.327 137.365 99.5509 136.743" stroke="#6E3820" stroke-width="5" stroke-linecap="round"/>
<circle cx="97.3685" cy="68.9473" r="11.0526" fill="#FFFDDD"/>
<circle cx="92" cy="44" r="15" fill="#FFFDDD"/>
<ellipse cx="115" cy="54.5" rx="22" ry="22.5" fill="#FFFDDD"/>
<circle cx="78" cy="54" r="21" fill="#FFFDDD"/>
<circle cx="63.5" cy="54.5" r="13.5" fill="#FFFDDD"/>
<circle cx="103.5" cy="36.5" r="7.5" fill="#FFFDDD"/>
<circle cx="59.5263" cy="79.5263" r="10.5263" fill="#FFFDDD"/>
<circle cx="143.474" cy="81.4737" r="9.47368" fill="#FFFDDD"/>
<circle cx="132.526" cy="70.5263" r="10.5263" fill="#FFFDDD"/>
<circle cx="71.5263" cy="70.5263" r="10.5263" fill="#FFFDDD"/>
<circle cx="154" cy="82" r="11" fill="#FFFDDD"/>
<circle cx="46" cy="81" r="10" fill="#FFFDDD"/>
<circle cx="131" cy="54" r="16" fill="#FFFDDD"/>
<ellipse cx="49.6828" cy="113.871" rx="5.1671" ry="4.87063" fill="#FF363C"/>
<rect width="17.8358" height="17.8358" rx="6" transform="matrix(0.727674 -0.685923 0.727674 0.685923 37 134.234)" fill="#7210B5"/>
<ellipse cx="49.6829" cy="121.841" rx="3.28816" ry="3.09949" fill="#59C015"/>
<ellipse cx="150.683" cy="113.871" rx="5.1671" ry="4.87063" fill="#FF363C"/>
<rect width="17.8358" height="17.8358" rx="6" transform="matrix(0.727674 -0.685923 0.727674 0.685923 138 134.234)" fill="#7210B5"/>
<ellipse cx="150.683" cy="121.841" rx="3.28816" ry="3.09949" fill="#59C015"/>
<circle cx="78.5" cy="163.5" r="3.5" fill="#FF363C"/>
<circle cx="80.5" cy="169.5" r="3.5" fill="#FF363C"/>
<circle cx="84.5" cy="174.5" r="3.5" fill="#FF363C"/>
<circle cx="90.5" cy="177.5" r="3.5" fill="#FF363C"/>
<circle cx="96.5" cy="179.5" r="3.5" fill="#FF363C"/>
<circle cx="3.5" cy="3.5" r="3.5" transform="matrix(-1 0 0 1 125 160)" fill="#FF363C"/>
<circle cx="3.5" cy="3.5" r="3.5" transform="matrix(-1 0 0 1 123 166)" fill="#FF363C"/>
<circle cx="3.5" cy="3.5" r="3.5" transform="matrix(-1 0 0 1 119 171)" fill="#FF363C"/>
<circle cx="3.5" cy="3.5" r="3.5" transform="matrix(-1 0 0 1 113 174)" fill="#FF363C"/>
<circle cx="3.5" cy="3.5" r="3.5" transform="matrix(-1 0 0 1 107 176)" fill="#FF363C"/>
<path fill-rule="evenodd" clip-rule="evenodd" d="M97.1557 112.891C98.2034 110.866 98.7922 108.587 98.7922 106.176C98.7922 97.7946 91.6753 91 82.8961 91C74.1169 91 67 97.7946 67 106.176C67 108.587 67.5888 110.866 68.6366 112.891C71.9993 111.021 77.1379 109.826 82.8963 109.826C88.6545 109.826 93.793 111.021 97.1557 112.891Z" fill="#FDFFFF"/>
<path fill-rule="evenodd" clip-rule="evenodd" d="M91.8427 110.873C93.1383 109.172 93.9012 107.086 93.9012 104.831C93.9012 99.1021 88.9741 94.4577 82.8962 94.4577C76.8183 94.4577 71.8912 99.1021 71.8912 104.831C71.8912 107.086 72.654 109.172 73.9497 110.874C76.5962 110.206 79.6477 109.826 82.8964 109.826C86.1449 109.826 89.1962 110.206 91.8427 110.873Z" fill="#351802"/>
<ellipse cx="80.2468" cy="100.157" rx="3.53247" ry="3.32978" fill="#FDFFFF"/>
<path fill-rule="evenodd" clip-rule="evenodd" d="M104.844 112.891C103.797 110.866 103.208 108.587 103.208 106.176C103.208 97.7946 110.325 91 119.104 91C127.883 91 135 97.7946 135 106.176C135 108.587 134.411 110.866 133.363 112.891C130.001 111.021 124.862 109.826 119.104 109.826C113.346 109.826 108.207 111.021 104.844 112.891Z" fill="#FDFFFF"/>
<path fill-rule="evenodd" clip-rule="evenodd" d="M110.157 110.874C108.862 109.172 108.099 107.086 108.099 104.831C108.099 99.1021 113.026 94.4577 119.104 94.4577C125.182 94.4577 130.109 99.1021 130.109 104.831C130.109 107.086 129.346 109.172 128.05 110.874C125.404 110.206 122.352 109.826 119.104 109.826C115.855 109.826 112.804 110.206 110.157 110.874Z" fill="#351802"/>
<ellipse cx="3.53247" cy="3.32978" rx="3.53247" ry="3.32978" transform="matrix(-1 0 0 1 125.286 96.8271)" fill="#FDFFFF"/>
</svg>
