<svg width="200" height="200" viewBox="0 0 200 200" fill="none" xmlns="http://www.w3.org/2000/svg">
<rect width="200" height="200" rx="30" fill="#FFFDDD"/>
<path fill-rule="evenodd" clip-rule="evenodd" d="M97.2077 150.985C71.5916 150.985 50.8256 171.751 50.8256 197.368V200H143.59V197.368C143.59 171.751 122.824 150.985 97.2077 150.985Z" fill="#1ABCFE"/>
<path d="M53.0914 78.064C53.0914 64.2569 64.2843 53.064 78.0914 53.064H121.776C135.583 53.064 146.776 64.2569 146.776 78.064V92.2746C146.776 106.082 135.583 117.275 121.776 117.275H78.0914C64.2843 117.275 53.0914 106.082 53.0914 92.2745V78.064Z" fill="#FFD8BF"/>
<path d="M87.8284 133.064H110.986V158.327C110.986 164.722 105.802 169.906 99.4073 169.906V169.906C93.0124 169.906 87.8284 164.722 87.8284 158.327V133.064Z" fill="#905940"/>
<ellipse cx="146.359" cy="103.982" rx="11.7434" ry="11.0696" fill="#905940"/>
<ellipse cx="52.4118" cy="103.982" rx="11.7434" ry="11.0696" fill="#905940"/>
<path d="M67.046 130.725C48.3272 113.081 48.3272 84.4729 67.046 66.8282V66.8282C85.016 49.8893 114.151 49.8893 132.121 66.8282V66.8282C150.84 84.4729 150.84 113.081 132.121 130.725L114.137 147.678C106.099 155.254 93.0677 155.254 85.03 147.678L67.046 130.725Z" fill="#A56649"/>
<path d="M96.3253 122.273C94.124 120.198 94.124 116.833 96.3253 114.758L99.5835 111.687C99.9854 111.308 100.637 111.308 101.039 111.687L104.297 114.758C106.498 116.833 106.498 120.198 104.297 122.273V122.273C102.096 124.348 98.5266 124.348 96.3253 122.273V122.273Z" fill="#905940"/>
<path d="M105.644 134.628C104.079 137.008 101.503 137.797 98.7265 137.176C95.95 136.554 94.5902 134.43 94.2186 132.071" stroke="#88401F" stroke-width="5" stroke-linecap="round"/>
<path d="M36.1528 19.6352C41.6856 14.4007 49.9341 18.89 55.8404 19.6352C61.7467 20.3804 66.4717 12.9298 74.3467 17.0275C82.2217 21.1252 75.4059 27.0219 86.1592 32.6737C89.7029 34.5363 94.9161 35.468 96.0974 45.8988C96.3421 48.0597 96.0489 49.9715 95.4139 51.655H109.72C109.982 55.3803 106.24 73.2794 92.0655 74.397C80.2021 75.3325 79.4654 72.5344 69.2279 74.397C61.0379 75.8872 58.1592 82.9261 57.1092 87.5206L56.7155 91.9909V96.4614C55.7 96.4614 52.2966 97.1213 50.3279 92.651C49.8168 91.4905 49.6372 86.9063 49.8079 82.2131C42.4838 83.8981 35.1599 80.2924 33.7903 69.9267C32.4872 60.0631 23.0886 64.1008 20.4028 55.0255C17.6466 45.7122 29.8528 43.1044 32.2153 37.144C34.5778 31.1835 29.0653 26.3406 36.1528 19.6352Z" fill="#311203"/>
<path d="M164.04 19.6352C158.507 14.4007 150.259 18.89 144.353 19.6352C138.446 20.3804 133.721 12.9298 125.846 17.0275C117.971 21.1252 124.787 27.0219 114.034 32.6737C110.49 34.5363 105.277 35.468 104.096 45.8988C103.851 48.0597 104.144 49.9715 104.779 51.655H90.4733C90.2108 55.3803 93.9525 73.2794 108.128 74.397C119.991 75.3325 116.97 72.5344 127.207 74.397C133.35 75.5146 139.203 81.5977 140.253 86.1922L142.132 91.5057L143.541 97.7046C145.548 97.2619 147.896 97.1213 149.865 92.651C150.376 91.4905 150.556 86.9063 150.385 82.2131C157.709 83.8981 165.033 80.2924 166.403 69.9267C167.706 60.0631 177.104 64.1008 179.79 55.0255C182.546 45.7122 170.34 43.1044 167.978 37.144C165.615 31.1835 171.128 26.3406 164.04 19.6352Z" fill="#311203"/>
<ellipse cx="69.2985" cy="54.1563" rx="5.14318" ry="4.71506" fill="#7210B5"/>
<ellipse cx="54.2668" cy="68.3254" rx="5.14318" ry="4.71506" fill="#7210B5"/>
<ellipse cx="59.6073" cy="59.2341" rx="6.7257" ry="6.16584" fill="#7210B5"/>
<ellipse cx="5.14318" cy="4.71506" rx="5.14318" ry="4.71506" transform="matrix(-1 0 0 1 135.507 49.4412)" fill="#7210B5"/>
<ellipse cx="5.14318" cy="4.71506" rx="5.14318" ry="4.71506" transform="matrix(-1 0 0 1 150.539 63.6104)" fill="#7210B5"/>
<ellipse cx="6.7257" cy="6.16584" rx="6.7257" ry="6.16584" transform="matrix(-1 0 0 1 146.781 53.0683)" fill="#7210B5"/>
<path fill-rule="evenodd" clip-rule="evenodd" d="M95.2957 110.808C96.4103 108.655 97.0366 106.23 97.0366 103.665C97.0366 94.7489 89.4655 87.5207 80.1261 87.5207C70.7867 87.5207 63.2156 94.7489 63.2156 103.665C63.2156 106.23 63.842 108.655 64.9566 110.808C68.5339 108.82 74.0004 107.548 80.1263 107.548C86.252 107.548 91.7184 108.82 95.2957 110.808Z" fill="#FDFFFF"/>
<path fill-rule="evenodd" clip-rule="evenodd" d="M89.6436 108.662C91.0219 106.852 91.8334 104.633 91.8334 102.235C91.8334 96.1399 86.5919 91.1991 80.1261 91.1991C73.6604 91.1991 68.4188 96.1399 68.4188 102.235C68.4188 104.633 69.2304 106.852 70.6087 108.663C73.4242 107.953 76.6703 107.548 80.1263 107.548C83.5822 107.548 86.8282 107.953 89.6436 108.662Z" fill="#351802"/>
<ellipse cx="77.3077" cy="97.2619" rx="3.75789" ry="3.54228" fill="#FDFFFF"/>
<path fill-rule="evenodd" clip-rule="evenodd" d="M103.475 110.808C102.36 108.655 101.734 106.23 101.734 103.665C101.734 94.7489 109.305 87.5207 118.645 87.5207C127.984 87.5207 135.555 94.7489 135.555 103.665C135.555 106.23 134.929 108.655 133.814 110.808C130.237 108.82 124.77 107.548 118.644 107.548C112.519 107.548 107.052 108.82 103.475 110.808Z" fill="#FDFFFF"/>
<path fill-rule="evenodd" clip-rule="evenodd" d="M109.127 108.663C107.749 106.852 106.937 104.633 106.937 102.235C106.937 96.1399 112.179 91.1991 118.644 91.1991C125.11 91.1991 130.352 96.1399 130.352 102.235C130.352 104.633 129.54 106.852 128.162 108.662C125.346 107.953 122.1 107.548 118.644 107.548C115.188 107.548 111.942 107.953 109.127 108.663Z" fill="#351802"/>
<ellipse cx="3.75789" cy="3.54228" rx="3.75789" ry="3.54228" transform="matrix(-1 0 0 1 125.221 93.7197)" fill="#FDFFFF"/>
</svg>
