<svg width="200" height="200" viewBox="0 0 200 200" fill="none" xmlns="http://www.w3.org/2000/svg">
<rect width="200" height="200" rx="30" fill="#1ABCFE"/>
<path d="M63.1578 180.737C63.1578 166.377 74.7984 154.737 89.1578 154.737H108.737C123.096 154.737 134.737 166.377 134.737 180.737V200H63.1578V180.737Z" fill="#7210B5"/>
<path d="M87.3473 131.932H110.834V157.383C110.834 163.868 105.576 169.126 99.0907 169.126V169.126C92.605 169.126 87.3473 163.868 87.3473 157.383V131.932Z" fill="#ED8A4B"/>
<ellipse cx="146.064" cy="103.23" rx="11.7434" ry="11.0696" fill="#ED8A4B"/>
<ellipse cx="52.1171" cy="103.23" rx="11.7434" ry="11.0696" fill="#ED8A4B"/>
<rect x="52.5868" y="53.1164" width="93.9474" height="98.2982" rx="46.9737" fill="#FFB89E"/>
<path d="M52.5868 78.1164C52.5868 64.3093 63.7797 53.1164 77.5868 53.1164H121.534C135.341 53.1164 146.534 64.3092 146.534 78.1164V90.9918C146.534 104.799 135.341 115.992 121.534 115.992H77.5868C63.7797 115.992 52.5868 104.799 52.5868 90.9918V78.1164Z" fill="#FFB89E"/>
<path d="M96.0305 121.52C93.8292 119.445 93.8292 116.081 96.0305 114.006L99.2887 110.935C99.6906 110.556 100.342 110.556 100.744 110.935L104.002 114.006C106.204 116.081 106.204 119.445 104.002 121.52V121.52C101.801 123.595 98.2318 123.595 96.0305 121.52V121.52Z" fill="#ED8A4B"/>
<path d="M93.9236 135.917H105.197" stroke="#F38360" stroke-width="5" stroke-linecap="round"/>
<path fill-rule="evenodd" clip-rule="evenodd" d="M47.8527 64.1321C56.8688 49.2625 76.5865 38.9473 99.4599 38.9473C129.062 38.9473 153.379 56.2242 156.054 78.2909C156.622 80.7532 156.755 83.2965 156.298 85.8825C153.415 102.19 144.391 98.4095 138.729 96.0373L138.729 96.0373L138.728 96.0372C137.934 95.7042 137.205 95.399 136.569 95.181C133.309 94.0635 124.251 92.0646 118.01 90.7414C114.056 89.9032 110.766 87.166 109.26 83.4152L102.739 67.1718C102.374 66.2607 100.999 66.3504 100.732 67.2953C99.5047 71.6452 96.8812 79.6617 92.8836 85.4398C85.8375 95.6238 48.1118 104.479 43.5612 90.7532C39.0106 77.0268 47.7888 64.1861 47.7888 64.1861L47.8527 64.1321Z" fill="#FFE500"/>
<path d="M106.137 103.81C106.137 96.3544 112.181 90.3102 119.637 90.3102H127.503C129.712 90.3102 131.503 92.1011 131.503 94.3102V101.606C131.503 109.062 125.458 115.106 118.003 115.106H110.137C107.928 115.106 106.137 113.315 106.137 111.106V103.81Z" fill="#FEFEFE"/>
<ellipse cx="116.941" cy="105.808" rx="5.1671" ry="4.87063" fill="#59C015"/>
<path fill-rule="evenodd" clip-rule="evenodd" d="M106.138 103.594H131.357C131.453 102.945 131.503 102.282 131.503 101.606V94.3103C131.503 92.1012 129.712 90.3103 127.503 90.3103H119.637C112.253 90.3103 106.254 96.2378 106.138 103.594Z" fill="#7210B5"/>
<path d="M92.0446 103.81C92.0446 96.3544 86.0004 90.3102 78.5446 90.3102H70.6788C68.4696 90.3102 66.6788 92.1011 66.6788 94.3102V101.606C66.6788 109.062 72.7229 115.106 80.1788 115.106H88.0446C90.2537 115.106 92.0446 113.315 92.0446 111.106V103.81Z" fill="#FEFEFE"/>
<ellipse cx="5.1671" cy="4.87063" rx="5.1671" ry="4.87063" transform="matrix(-1 0 0 1 86.4077 100.937)" fill="#59C015"/>
<path fill-rule="evenodd" clip-rule="evenodd" d="M92.043 103.594H66.8242C66.7285 102.945 66.6789 102.282 66.6789 101.606V94.3103C66.6789 92.1012 68.4697 90.3103 70.6789 90.3103H78.5447C85.9282 90.3103 91.9273 96.2378 92.043 103.594Z" fill="#7210B5"/>
<ellipse cx="47.4195" cy="117.32" rx="5.1671" ry="4.87063" fill="#FFE500"/>
<rect width="17.8358" height="17.8358" rx="3" transform="matrix(0.727674 -0.685923 0.727674 0.685923 34.7368 138.853)" fill="#FF363C"/>
<ellipse cx="47.4196" cy="125.29" rx="3.28816" ry="3.09949" fill="#7210B5"/>
<ellipse cx="151.701" cy="117.32" rx="5.1671" ry="4.87063" fill="#FFE500"/>
<rect width="17.8358" height="17.8358" rx="3" transform="matrix(0.727674 -0.685923 0.727674 0.685923 139.018 138.853)" fill="#FF363C"/>
<ellipse cx="151.701" cy="125.29" rx="3.28816" ry="3.09949" fill="#7210B5"/>
</svg>
