<svg width="200" height="200" viewBox="0 0 200 200" fill="none" xmlns="http://www.w3.org/2000/svg">
<rect width="200" height="200" rx="30" fill="#1ABCFE"/>
<path d="M65.266 181.058C65.266 166.698 76.9066 155.058 91.266 155.058H108.74C123.099 155.058 134.74 166.698 134.74 181.058V200H65.266V181.058Z" fill="#FFE500"/>
<path d="M88.4238 132.064H111.582V157.066C111.582 163.461 106.398 168.645 100.003 168.645V168.645C93.6079 168.645 88.4238 163.461 88.4238 157.066V132.064Z" fill="#E37E3D"/>
<ellipse cx="146.744" cy="103.038" rx="11.7434" ry="10.9911" fill="#E37E3D"/>
<ellipse cx="52.796" cy="103.038" rx="11.7434" ry="10.9911" fill="#E37E3D"/>
<path d="M51.5818 100C51.5818 73.8392 72.7894 52.6316 98.9502 52.6316V52.6316C125.111 52.6316 146.319 73.8392 146.319 100V119.832C146.319 136.401 132.887 149.832 116.319 149.832H81.5818C65.0133 149.832 51.5818 136.401 51.5818 119.832V100Z" fill="#FFB89E"/>
<path d="M95.7702 121.199C93.5688 119.139 93.5688 115.798 95.7702 113.738L99.0259 110.691C99.4291 110.313 100.083 110.313 100.486 110.691L103.742 113.738C105.943 115.798 105.943 119.139 103.742 121.199V121.199C101.541 123.259 97.9715 123.259 95.7702 121.199V121.199Z" fill="#E37E3D"/>
<path d="M94.7396 132.064C97.5159 133.773 99.5906 134.857 104.213 135.2" stroke="#E37E3D" stroke-width="4" stroke-linecap="round"/>
<path d="M154.737 84.7452C154.737 89.5213 150.763 93.3931 145.861 93.3931C140.96 93.3931 136.986 89.5213 136.986 84.7452C136.986 79.9691 140.96 76.0973 145.861 76.0973C150.763 76.0973 154.737 79.9691 154.737 84.7452Z" fill="#FFFDDD"/>
<path d="M146.172 73.8215C146.172 78.5976 142.198 82.4694 137.296 82.4694C132.395 82.4694 128.421 78.5976 128.421 73.8215C128.421 69.0454 132.395 65.1736 137.296 65.1736C142.198 65.1736 146.172 69.0454 146.172 73.8215Z" fill="#FFFDDD"/>
<ellipse cx="54.2106" cy="84.5092" rx="8.94737" ry="8.88391" fill="#FFFDDD"/>
<ellipse cx="61.0527" cy="75.6252" rx="9.47368" ry="9.4065" fill="#FFFDDD"/>
<rect x="106.872" y="89.921" width="26.4942" height="25.1106" rx="12.5553" fill="#FEFEFE"/>
<ellipse cx="116.68" cy="104.719" rx="4.22763" ry="5.71538" fill="#4D4D4D"/>
<path d="M106.872 101.972C106.872 94.6562 112.803 88.7252 120.119 88.7252V88.7252C127.435 88.7252 133.366 94.6562 133.366 101.972V103.074H106.872V101.972Z" fill="#E37E3D"/>
<rect x="67.1304" y="89.921" width="26.4942" height="25.1106" rx="12.5553" fill="#FEFEFE"/>
<ellipse cx="77.2224" cy="104.719" rx="4.22763" ry="5.71538" fill="#4D4D4D"/>
<path d="M67.1304 101.972C67.1304 94.6562 73.0613 88.7252 80.3775 88.7252V88.7252C87.6936 88.7252 93.6246 94.6562 93.6246 101.972V103.074H67.1304V101.972Z" fill="#E37E3D"/>
</svg>
