<svg width="200" height="200" viewBox="0 0 200 200" fill="none" xmlns="http://www.w3.org/2000/svg">
<rect width="200" height="200" rx="30" fill="#7210B5"/>
<path d="M88.9782 117.758C87.9819 117.758 87.1742 116.95 87.1742 115.954C87.1742 110.967 87.608 106.992 88.4757 104.03C89.3744 101.067 90.676 98.6908 92.3804 96.9014C94.0848 95.0826 96.1611 93.4253 98.6093 91.9292C100.562 90.7558 102.297 89.5678 103.816 88.3651C105.365 87.1331 106.589 85.813 107.488 84.405C108.386 82.9969 108.836 81.3982 108.836 79.6088C108.836 77.8781 108.402 76.3527 107.534 75.0327C106.667 73.7126 105.473 72.7006 103.955 71.9966C102.467 71.2632 100.81 70.8965 98.9812 70.8965C97.1528 70.8965 95.4329 71.2925 93.8214 72.0846C92.2409 72.8766 90.9394 74.006 89.9167 75.4727C88.1723 78.0012 85.9168 80.7089 82.8449 80.7089H77.8527C71.8856 80.7089 66.7117 75.6229 68.9721 70.1005C69.6456 68.4551 70.4912 66.9457 71.509 65.5724C74.453 61.6416 78.3422 58.7375 83.1765 56.8601C88.0109 54.9534 93.3411 54 99.1671 54C105.551 54 111.222 54.9387 116.18 56.8161C121.17 58.6935 125.09 61.4656 127.941 65.1324C130.792 68.7991 132.217 73.2873 132.217 78.5968C132.217 82.0876 131.598 85.1677 130.358 87.8371C129.118 90.5065 127.383 92.8679 125.152 94.9213C122.952 96.9454 120.364 98.7934 117.389 100.465C115.065 101.756 113.128 103.106 111.578 104.514C110.06 105.922 108.913 107.535 108.139 109.354C107.364 111.143 106.976 113.343 106.976 115.954C106.976 116.95 106.169 117.758 105.172 117.758H88.9782ZM97.4472 146.623C94.1003 146.623 91.2338 145.508 88.8476 143.279C86.4924 141.049 85.3303 138.351 85.3613 135.183C85.3303 132.073 86.4924 129.418 88.8476 127.218C91.2338 124.989 94.1003 123.874 97.4472 123.874C100.639 123.874 103.444 124.989 105.861 127.218C108.278 129.418 109.502 132.073 109.533 135.183C109.502 137.295 108.913 139.216 107.767 140.947C106.651 142.677 105.179 144.056 103.351 145.083C101.553 146.11 99.5855 146.623 97.4472 146.623Z" fill="#F5F5F5"/>
</svg>
