<svg width="200" height="200" viewBox="0 0 200 200" fill="none" xmlns="http://www.w3.org/2000/svg">
<mask id="mask0_10_48" style="mask-type:alpha" maskUnits="userSpaceOnUse" x="0" y="0" width="200" height="200">
<rect y="200" width="200" height="200" rx="30" transform="rotate(-90 0 200)" fill="#7210B5"/>
</mask>
<g mask="url(#mask0_10_48)">
<rect y="200" width="200" height="200" rx="30" transform="rotate(-90 0 200)" fill="#7210B5"/>
<path d="M275 169.964L264.906 178.482C259.076 183.402 250.549 183.402 244.719 178.482V178.482C238.889 173.563 230.361 173.563 224.531 178.482V178.482C218.701 183.402 210.174 183.402 204.344 178.482V178.482C198.514 173.563 189.986 173.563 184.156 178.482V178.482C178.326 183.402 169.799 183.402 163.969 178.482V178.482C158.139 173.563 149.611 173.563 143.781 178.482V178.482C137.951 183.402 129.424 183.402 123.594 178.482V178.482C117.764 173.563 109.236 173.563 103.406 178.482V178.482C97.5762 183.402 89.0487 183.402 83.2187 178.482V178.482C77.3887 173.563 68.8612 173.563 63.0312 178.482V178.482C57.2012 183.402 48.6737 183.402 42.8437 178.482V178.482C37.0137 173.563 28.4862 173.563 22.6562 178.482V178.482C16.8262 183.402 8.29868 183.402 2.46872 178.482V178.482C-3.36125 173.563 -11.8888 173.563 -17.7188 178.482V178.482C-23.5488 183.402 -32.0763 183.402 -37.9063 178.482L-48 169.964" stroke="#FF5C00" stroke-width="15" stroke-linecap="round"/>
<path d="M275 107.579L264.906 116.096C259.076 121.016 250.549 121.016 244.719 116.096V116.096C238.889 111.177 230.361 111.177 224.531 116.096V116.096C218.701 121.016 210.174 121.016 204.344 116.096V116.096C198.514 111.177 189.986 111.177 184.156 116.096V116.096C178.326 121.016 169.799 121.016 163.969 116.096V116.096C158.139 111.177 149.611 111.177 143.781 116.096V116.096C137.951 121.016 129.424 121.016 123.594 116.096V116.096C117.764 111.177 109.236 111.177 103.406 116.096V116.096C97.5762 121.016 89.0487 121.016 83.2187 116.096V116.096C77.3887 111.177 68.8612 111.177 63.0312 116.096V116.096C57.2012 121.016 48.6737 121.016 42.8437 116.096V116.096C37.0137 111.177 28.4862 111.177 22.6562 116.096V116.096C16.8262 121.016 8.29868 121.016 2.46872 116.096V116.096C-3.36125 111.177 -11.8888 111.177 -17.7188 116.096V116.096C-23.5488 121.016 -32.0763 121.016 -37.9063 116.096L-48 107.579" stroke="#FF5C00" stroke-width="15" stroke-linecap="round"/>
<path d="M275 138.772L264.906 147.289C259.076 152.209 250.549 152.209 244.719 147.289V147.289C238.889 142.37 230.361 142.37 224.531 147.289V147.289C218.701 152.209 210.174 152.209 204.344 147.289V147.289C198.514 142.37 189.986 142.37 184.156 147.289V147.289C178.326 152.209 169.799 152.209 163.969 147.289V147.289C158.139 142.37 149.611 142.37 143.781 147.289V147.289C137.951 152.209 129.424 152.209 123.594 147.289V147.289C117.764 142.37 109.236 142.37 103.406 147.289V147.289C97.5762 152.209 89.0487 152.209 83.2187 147.289V147.289C77.3887 142.37 68.8612 142.37 63.0312 147.289V147.289C57.2012 152.209 48.6737 152.209 42.8437 147.289V147.289C37.0137 142.37 28.4862 142.37 22.6562 147.289V147.289C16.8262 152.209 8.29868 152.209 2.46872 147.289V147.289C-3.36125 142.37 -11.8888 142.37 -17.7188 147.289V147.289C-23.5488 152.209 -32.0763 152.209 -37.9063 147.289L-48 138.772" stroke="#FFE500" stroke-width="15" stroke-linecap="round"/>
<path d="M275 76.3858L264.906 84.9036C259.076 89.8233 250.549 89.8233 244.719 84.9036V84.9036C238.889 79.9839 230.361 79.9839 224.531 84.9036V84.9036C218.701 89.8233 210.174 89.8233 204.344 84.9036V84.9036C198.514 79.9839 189.986 79.9839 184.156 84.9036V84.9036C178.326 89.8233 169.799 89.8233 163.969 84.9036V84.9036C158.139 79.9839 149.611 79.9839 143.781 84.9036V84.9036C137.951 89.8233 129.424 89.8233 123.594 84.9036V84.9036C117.764 79.9839 109.236 79.9839 103.406 84.9036V84.9036C97.5762 89.8233 89.0487 89.8233 83.2187 84.9036V84.9036C77.3887 79.9839 68.8612 79.9839 63.0312 84.9036V84.9036C57.2012 89.8233 48.6737 89.8233 42.8437 84.9036V84.9036C37.0137 79.9839 28.4862 79.9839 22.6562 84.9036V84.9036C16.8262 89.8233 8.29868 89.8233 2.46872 84.9036V84.9036C-3.36125 79.9839 -11.8888 79.9839 -17.7188 84.9036V84.9036C-23.5488 89.8233 -32.0763 89.8233 -37.9063 84.9036L-48 76.3858" stroke="#FFE500" stroke-width="15" stroke-linecap="round"/>
<path d="M275 45.1929L264.906 53.7106C259.076 58.6303 250.549 58.6303 244.719 53.7106V53.7106C238.889 48.7909 230.361 48.7909 224.531 53.7106V53.7106C218.701 58.6303 210.174 58.6303 204.344 53.7106V53.7106C198.514 48.7909 189.986 48.7909 184.156 53.7106V53.7106C178.326 58.6303 169.799 58.6303 163.969 53.7106V53.7106C158.139 48.7909 149.611 48.7909 143.781 53.7106V53.7106C137.951 58.6303 129.424 58.6303 123.594 53.7106V53.7106C117.764 48.7909 109.236 48.7909 103.406 53.7106V53.7106C97.5762 58.6303 89.0487 58.6303 83.2187 53.7106V53.7106C77.3887 48.7909 68.8612 48.7909 63.0312 53.7106V53.7106C57.2012 58.6303 48.6737 58.6303 42.8437 53.7106V53.7106C37.0137 48.7909 28.4862 48.7909 22.6562 53.7106V53.7106C16.8262 58.6303 8.29868 58.6303 2.46872 53.7106V53.7106C-3.36125 48.7909 -11.8888 48.7909 -17.7188 53.7106V53.7106C-23.5488 58.6303 -32.0763 58.6303 -37.9063 53.7106L-48 45.1929" stroke="#FF5C00" stroke-width="15" stroke-linecap="round"/>
<path d="M275 14L264.906 22.5178C259.076 27.4375 250.549 27.4375 244.719 22.5178V22.5178C238.889 17.5981 230.361 17.5981 224.531 22.5178V22.5178C218.701 27.4375 210.174 27.4375 204.344 22.5178V22.5178C198.514 17.5981 189.986 17.5981 184.156 22.5178V22.5178C178.326 27.4375 169.799 27.4375 163.969 22.5178V22.5178C158.139 17.5981 149.611 17.5981 143.781 22.5178V22.5178C137.951 27.4375 129.424 27.4375 123.594 22.5178V22.5178C117.764 17.5981 109.236 17.5981 103.406 22.5178V22.5178C97.5762 27.4375 89.0487 27.4375 83.2187 22.5178V22.5178C77.3887 17.5981 68.8612 17.5981 63.0312 22.5178V22.5178C57.2012 27.4375 48.6737 27.4375 42.8437 22.5178V22.5178C37.0137 17.5981 28.4862 17.5981 22.6562 22.5178V22.5178C16.8262 27.4375 8.29868 27.4375 2.46872 22.5178V22.5178C-3.36125 17.5981 -11.8888 17.5981 -17.7188 22.5178V22.5178C-23.5488 27.4375 -32.0763 27.4375 -37.9063 22.5178L-48 14" stroke="#FFE500" stroke-width="15" stroke-linecap="round"/>
</g>
</svg>
